<?xml version="1.0" encoding="utf-8"?>
<!-- Generator: Adobe Illustrator 26.5.0, SVG Export Plug-In . SVG Version: 6.00 Build 0)  -->
<svg width="224px" height="78px" version="1.1" id="Layer_1" xmlns="http://www.w3.org/2000/svg" xmlns:xlink="http://www.w3.org/1999/xlink" x="0px" y="0px"
	 viewBox="0 0 340.2 120.2" style="enable-background:new 0 0 340.2 120.2;" xml:space="preserve">
<style type="text/css">
	.st0{fill:#009ADE;}
	.st1{fill-rule:evenodd;clip-rule:evenodd;fill:#009ADE;}
</style>
<g>
	<g>
		<g>
			<path class="st0" d="M8,95.1h4.9c2,0,3.1,0.5,4,1.3c1,0.9,1.4,2.2,1.4,3.6c0,2-1,4-3.8,4.6v0.1c1.1,0.2,1.7,0.8,2.1,1.9l2.7,7.6
				h-2.6l-2.2-6.4c-0.5-1.6-1.2-2.2-3-2.2h-1.1v8.6H8V95.1z M10.4,103.6h1.9c2.6,0,3.6-1.7,3.6-3.4c0-2.1-1.4-3.1-3.5-3.1h-1.9
				V103.6z"/>
			<path class="st0" d="M23.4,107.9c0,3.2,1.3,4.7,3.8,4.7c1.1,0,2.4-0.6,3.2-1.1l0.1,2.1c-1.1,0.5-2.5,0.8-3.9,0.8
				c-3.7,0-5.6-2.8-5.6-7.2s1.9-7.2,5.4-7.2c3.1,0,4.9,2.5,4.9,6.6v1.2H23.4z M29,106.2c0-2.9-0.9-4.3-2.7-4.3
				c-1.5,0-2.8,1.1-2.8,4.3H29z M26.5,94.4h2.7l-2.8,4h-1.7L26.5,94.4z"/>
			<path class="st0" d="M43.8,114.8c0,3.9-2.9,5.5-6,5.5c-1.2,0-3.1-0.4-4.1-0.8l0.1-2.3c1,0.7,2.6,1.2,3.8,1.2
				c2.8,0,3.9-1.7,3.9-4.1V112h-0.1c-0.9,1.6-2.1,2.3-3.7,2.3c-2.9,0-4.8-2.3-4.8-7.2c0-4.8,1.9-7.2,5.1-7.2c1.4,0,2.6,0.9,3.4,2.2
				h0.1l0.1-2h2.2c0,0.8-0.1,1.7-0.1,2.5V114.8z M38.5,112.5c2.1,0,3.1-1.8,3.1-5.3s-1-5.3-3.1-5.3c-2.1,0-3.1,1.8-3.1,5.3
				S36.4,112.5,38.5,112.5z"/>
			<path class="st0" d="M49.6,94.5v2.7h-2.5v-2.7H49.6z M47.2,100.3h2.3v13.9h-2.3V100.3z"/>
			<path class="st0" d="M57.9,100.1c3.7,0,5.6,2.8,5.6,7.2s-1.9,7.2-5.6,7.2c-3.7,0-5.6-2.8-5.6-7.2S54.2,100.1,57.9,100.1z
				 M57.9,112.5c2.2,0,3.2-1.8,3.2-5.3s-1-5.3-3.2-5.3s-3.2,1.8-3.2,5.3S55.7,112.5,57.9,112.5z"/>
			<path class="st0" d="M66.2,103.3c0-1-0.1-2-0.1-3h2.2l0.1,2.1h0.1c0.7-1.6,1.9-2.3,3.5-2.3c2.4,0,4.1,1.4,4.1,4.5v9.7h-2.3v-9
				c0-2.2-0.8-3.2-2.3-3.2c-1.8,0-2.9,1.3-2.9,3.8v8.4h-2.3V103.3z"/>
			<path class="st0" d="M86.4,101.2c1.1-0.7,2.6-1.1,3.9-1.1c2,0,3.3,0.9,3.7,1.3c0.6,0.6,1.2,1.4,1.2,3.4v7.3
				c0,0.8,0.1,1.6,0.1,2.1h-2.1l-0.1-1.9h-0.1c-0.6,1.1-1.8,2.1-3.9,2.1c-2.3,0-4-1.3-4-4c0-2.7,1.8-4.7,6.6-4.7h1.3V105
				c0-1-0.1-1.6-0.5-2.2c-0.5-0.6-1.4-0.9-2.3-0.9c-1.4,0-2.8,0.6-3.6,1.4L86.4,101.2z M93.1,107.4c-0.4-0.1-1-0.1-1.6-0.1
				c-2.7,0-4,1.3-4,2.9c0,1.5,0.8,2.4,2.3,2.4c2,0,3.3-1.6,3.3-3.5V107.4z"/>
			<path class="st0" d="M99.5,102.1h-2.2v-1.9h2.2v-3.1c0-2.3,1-3.8,3.5-3.8c0.6,0,1.3,0.1,1.8,0.2v2c-0.3-0.2-0.8-0.3-1.3-0.3
				c-1.3,0-1.7,0.7-1.7,2.1v2.9h2.5v1.9h-2.5v12.1h-2.3V102.1z"/>
			<path class="st0" d="M106.1,103.3c0-1-0.1-2-0.1-3h2.2l0.1,2.2h0.1c0.7-1.7,1.9-2.4,4-2.4v2.3c-0.3-0.1-0.6-0.1-0.9-0.1
				c-1.8,0-3,1.5-3,4.6v7.4h-2.3V103.3z"/>
			<path class="st0" d="M116.8,94.5v2.7h-2.5v-2.7H116.8z M114.4,100.3h2.3v13.9h-2.3V100.3z"/>
			<path class="st0" d="M128.5,102.7c-0.8-0.4-1.6-0.7-2.6-0.7c-2.2,0-3.8,1.6-3.8,5.3c0,3.2,1.5,5.1,3.8,5.1c1.1,0,2-0.3,2.8-0.7
				l0.1,2.1c-0.7,0.3-1.9,0.6-2.9,0.6c-4.2,0-6.2-3.1-6.2-7c0-4.5,2.3-7.3,6.2-7.3c1,0,2,0.2,2.8,0.5L128.5,102.7z"/>
			<path class="st0" d="M131.4,101.2c1.1-0.7,2.6-1.1,3.9-1.1c2,0,3.3,0.9,3.7,1.3c0.6,0.6,1.2,1.4,1.2,3.4v7.3
				c0,0.8,0.1,1.6,0.1,2.1h-2.1l-0.1-1.9h-0.1c-0.6,1.1-1.8,2.1-3.9,2.1c-2.3,0-4-1.3-4-4c0-2.7,1.8-4.7,6.6-4.7h1.3V105
				c0-1-0.1-1.6-0.5-2.2c-0.5-0.6-1.4-0.9-2.3-0.9c-1.4,0-2.8,0.6-3.6,1.4L131.4,101.2z M138.1,107.4c-0.4-0.1-1-0.1-1.6-0.1
				c-2.7,0-4,1.3-4,2.9c0,1.5,0.8,2.4,2.3,2.4c2,0,3.3-1.6,3.3-3.5V107.4z"/>
			<path class="st0" d="M146.2,94.5v2.7h-2.5v-2.7H146.2z M143.8,100.3h2.3v13.9h-2.3V100.3z"/>
			<path class="st0" d="M149.6,103.3c0-1-0.1-2-0.1-3h2.2l0.1,2.1h0.1c0.7-1.6,1.9-2.3,3.5-2.3c2.4,0,4.1,1.4,4.1,4.5v9.7h-2.3v-9
				c0-2.2-0.8-3.2-2.3-3.2c-1.8,0-3,1.3-3,3.8v8.4h-2.3V103.3z"/>
			<path class="st0" d="M164.5,107.9c0,3.2,1.3,4.7,3.8,4.7c1.1,0,2.4-0.6,3.2-1.1l0.1,2.1c-1.1,0.5-2.5,0.8-3.9,0.8
				c-3.7,0-5.6-2.8-5.6-7.2s1.9-7.2,5.4-7.2c3.1,0,4.9,2.5,4.9,6.6v1.2H164.5z M170.1,106.2c0-2.9-0.9-4.3-2.7-4.3
				c-1.5,0-2.8,1.1-2.8,4.3H170.1z"/>
		</g>
	</g>
	<rect x="7.9" y="84" class="st0" width="332.3" height="1.2"/>
	<g>
		<path class="st0" d="M97.7,23.5l0,1l0.1,1l0,0.4l0,0.4l0.1,0.4l0.1,0.4l0.1,0.4l0.1,0.4l0.1,0.3l0.1,0.3l0.1,0.3l0.1,0.3l0.1,0.3
			l0.2,0.3l0.1,0.2l0.2,0.2l0.2,0.2l0.2,0.2l0.2,0.2l0.2,0.1l0.2,0.1l0.2,0.1l0.2,0.1l0.2,0.1l0.2,0.1l0.2,0.1l0.2,0l0.2,0l0.2,0
			h0.3h0.3l0.2,0l0.2,0l0.2,0l0.2-0.1l0.2-0.1l0.2-0.1l0.2-0.1l0.2-0.1l0.2-0.1l0.2-0.1l0.2-0.2l0.2-0.2l0.2-0.2l0.2-0.2l0.2-0.2
			l0.1-0.3l0.1-0.3l0.1-0.3l0.1-0.3l0.1-0.3l0.1-0.3l0.1-0.3l0.1-0.4l0.1-0.4l0.1-0.4l0-0.4l0-0.4l0.1-0.9l0-1l0-1l-0.1-0.9l0-0.4
			l0-0.4l-0.1-0.4l-0.1-0.4l-0.1-0.4l-0.1-0.4l-0.1-0.3l-0.1-0.3l-0.1-0.3l-0.1-0.3l-0.1-0.3l-0.1-0.3l-0.1-0.2l-0.2-0.2l-0.2-0.2
			l-0.2-0.2l-0.2-0.2l-0.2-0.2l-0.2-0.1L104,16l-0.2-0.1l-0.2-0.1l-0.2-0.1l-0.2-0.1l-0.2,0l-0.2,0l-0.2,0l-0.3,0l-0.3,0l-0.2,0
			l-0.3,0l-0.2,0l-0.2,0.1l-0.2,0.1l-0.2,0.1l-0.2,0.1l-0.2,0.1l-0.2,0.1l-0.2,0.2l-0.2,0.2l-0.2,0.2L99.2,17l-0.2,0.2l-0.1,0.2
			l-0.2,0.3l-0.1,0.3l-0.1,0.3l-0.1,0.3l-0.1,0.3l-0.1,0.3l-0.1,0.3L98,19.9l-0.1,0.4l-0.1,0.4l0,0.4l0,0.4l-0.1,1L97.7,23.5
			L97.7,23.5z M93.6,23.5v-0.7l0-0.7l0.1-0.6l0.1-0.6l0.1-0.6l0.1-0.6l0.1-0.6l0.1-0.5l0.2-0.5l0.2-0.5l0.2-0.5l0.2-0.4l0.3-0.4
			l0.3-0.4l0.3-0.4l0.3-0.4l0.3-0.3l0.3-0.3l0.3-0.3l0.3-0.3l0.3-0.2l0.4-0.2l0.4-0.2l0.4-0.2l0.4-0.1l0.4-0.1l0.4-0.1l0.4-0.1
			l0.4-0.1l0.4,0l0.4,0h0.4l0.6,0l0.6,0l0.6,0.1l0.5,0.1l0.5,0.1l0.5,0.2l0.5,0.2l0.5,0.3l0.2,0.2l0.2,0.1l0.2,0.2l0.2,0.2l0.2,0.2
			l0.2,0.2L108,15l0.2,0.2l0.2,0.2l0.2,0.2l0.2,0.3l0.2,0.3l0.3,0.6l0.3,0.6l0.1,0.3l0.2,0.3l0.1,0.3l0.1,0.3l0.1,0.4l0.1,0.4
			l0.1,0.4l0.1,0.4l0.1,0.8l0.1,0.8l0.1,0.9l0,0.9l0,0.9l-0.1,0.9l-0.1,0.8l-0.1,0.8l-0.1,0.4l-0.1,0.4l-0.1,0.4l-0.1,0.3l-0.1,0.4
			l-0.1,0.3l-0.2,0.3l-0.1,0.3l-0.3,0.6l-0.3,0.6l-0.2,0.3l-0.2,0.3l-0.2,0.2l-0.2,0.2l-0.2,0.2l-0.2,0.2l-0.2,0.2l-0.2,0.2
			l-0.2,0.2l-0.2,0.2l-0.2,0.1l-0.2,0.1l-0.5,0.3l-0.5,0.3l-0.5,0.2l-0.5,0.2l-0.5,0.1l-0.6,0.1l-0.6,0l-0.6,0h-0.4l-0.4,0l-0.4,0
			l-0.4-0.1l-0.4-0.1l-0.4-0.1l-0.4-0.1L99,33.9l-0.4-0.2l-0.4-0.2l-0.3-0.2l-0.4-0.3l-0.3-0.3l-0.3-0.3l-0.3-0.3l-0.3-0.3l-0.3-0.4
			l-0.3-0.4l-0.3-0.4l-0.3-0.4l-0.2-0.4l-0.2-0.5l-0.2-0.5l-0.2-0.5l-0.2-0.5L94,27.3l-0.1-0.6l-0.1-0.6l-0.1-0.6l0-0.6l0-0.7V23.5
			L93.6,23.5z"/>
		<polygon class="st0" points="112.6,34.2 112.6,21 112.6,20.2 112.5,19.5 112.5,19 112.4,18.4 115.9,18.4 115.9,18.7 115.9,19 
			115.9,19.3 115.9,19.7 116,20.2 116,20.6 116,20.9 116,21.3 116.1,21.3 116.2,21 116.3,20.7 116.5,20.4 116.7,20.1 116.9,19.9 
			117.1,19.6 117.3,19.4 117.5,19.1 117.8,18.9 118.1,18.7 118.4,18.5 118.7,18.4 119,18.3 119.3,18.2 119.7,18.2 120.1,18.2 
			120.2,18.2 120.4,18.2 120.6,18.2 120.8,18.3 120.8,21.8 120.5,21.8 120.2,21.7 119.9,21.7 119.7,21.7 119.3,21.7 119,21.7 
			118.7,21.8 118.4,21.9 118.1,22.1 117.9,22.2 117.6,22.4 117.3,22.6 117.2,22.8 117.1,22.9 117,23 116.9,23.2 116.8,23.5 
			116.6,23.8 116.5,24.2 116.4,24.6 116.4,25.1 116.4,25.6 116.4,34.2 112.6,34.2 		"/>
		<path class="st0" d="M125.1,26.2v0.6l0,0.6l0,0.6l0.1,0.5l0.1,0.5l0.1,0.4l0.1,0.4l0.2,0.4l0.2,0.3l0.2,0.3l0.2,0.2l0.2,0.2
			l0.2,0.1l0.2,0.1l0.1,0l0.1,0h0.1l0.1,0l0.2,0h0.2l0.2,0l0.2,0l0.2,0l0.2-0.1l0.2-0.1l0.1-0.1l0.2-0.1l0.1-0.1l0.1-0.1l0.1-0.1
			l0.1-0.1l0.1-0.1l0.1-0.1l0.1-0.1l0.2-0.3l0.2-0.4l0.1-0.4l0.1-0.5l0.1-0.5l0.1-0.6l0-0.6l0-0.7l0-0.6l0-0.6l-0.1-0.5l-0.1-0.5
			l-0.1-0.5l-0.1-0.4l-0.2-0.4l-0.2-0.3l-0.2-0.3l-0.2-0.3l-0.3-0.2l-0.3-0.2l-0.1-0.1l-0.1-0.1l-0.1-0.1l-0.2,0l-0.3-0.1l-0.4,0
			l-0.3,0l-0.3,0.1l-0.1,0.1l-0.1,0l-0.1,0.1l-0.1,0.1l-0.1,0.1l-0.1,0.1l-0.1,0.1l-0.1,0.1l-0.1,0.1l-0.1,0.1l-0.1,0.1l-0.1,0.2
			l-0.2,0.3l-0.1,0.4l-0.1,0.4l-0.1,0.5l-0.1,0.5l0,0.5l0,0.6V26.2L125.1,26.2z M121.8,40.1l0.2-3.4l0.6,0.3l0.6,0.3l0.6,0.2
			l0.6,0.2l0.6,0.1l0.6,0.1l0.6,0.1l0.6,0h0.4l0.4,0l0.4,0l0.3-0.1l0.3-0.1l0.3-0.1l0.3-0.1l0.3-0.2l0.2-0.2l0.2-0.2l0.2-0.2
			l0.2-0.2l0.1-0.2l0.1-0.3l0.1-0.2l0.1-0.3l0.1-0.3l0.1-0.3l0.1-0.3l0-0.3l0.1-0.7l0-0.7v-1.5h-0.1l-0.2,0.3l-0.1,0.3l-0.2,0.3
			l-0.2,0.3l-0.2,0.2l-0.2,0.2l-0.2,0.2l-0.2,0.2l-0.3,0.2l-0.3,0.1l-0.3,0.1l-0.3,0.1l-0.3,0.1l-0.4,0.1l-0.4,0l-0.4,0h-0.2l-0.2,0
			l-0.2,0l-0.2,0l-0.2-0.1l-0.2-0.1L125,34l-0.2-0.1l-0.2-0.1l-0.2-0.1l-0.2-0.1l-0.2-0.1l-0.2-0.1l-0.2-0.2l-0.2-0.2l-0.2-0.2
			l-0.2-0.2l-0.2-0.3l-0.2-0.3l-0.2-0.3l-0.2-0.3l-0.1-0.3l-0.1-0.4l-0.1-0.4l-0.1-0.4l-0.1-0.4l-0.1-0.4l-0.1-0.4l-0.1-0.5l0-0.5
			l0-0.5v-0.6v-0.6l0-0.6l0.1-0.6l0.1-0.5l0.1-0.5l0.1-0.5l0.1-0.5l0.1-0.5l0.1-0.4l0.2-0.4l0.2-0.4l0.2-0.4l0.2-0.3l0.3-0.3
			l0.3-0.3l0.3-0.3l0.3-0.3l0.4-0.2l0.4-0.2l0.4-0.1l0.4-0.1l0.4-0.1l0.5,0l0.5,0h0.3l0.3,0l0.2,0l0.2,0l0.2,0.1l0.2,0.1l0.2,0.1
			l0.2,0.1l0.4,0.2l0.4,0.2l0.3,0.3l0.3,0.3l0.3,0.3l0.2,0.3l0.3,0.4l0.3,0.4h0.1v-0.2v-0.2l0-0.2v-0.3l0-0.3l0-0.3v-0.2l0-0.2v-0.2
			l0-0.2v-0.2l0-0.1h3.4l0,0.8l0,0.7l0,0.6v0.4v11.7l0,0.5l0,0.5l0,0.5l0,0.5l-0.1,0.4l-0.1,0.4l-0.1,0.4l-0.1,0.4l-0.1,0.4
			l-0.1,0.4l-0.1,0.3l-0.1,0.3l-0.2,0.3l-0.2,0.3l-0.2,0.3l-0.2,0.3l-0.2,0.3l-0.2,0.3l-0.3,0.2l-0.3,0.2l-0.3,0.2l-0.3,0.2
			l-0.3,0.2l-0.3,0.1l-0.4,0.1l-0.4,0.1l-0.4,0.1l-0.4,0.1l-0.4,0.1l-0.5,0l-0.5,0h-0.5l-0.8,0l-0.7-0.1l-0.7-0.1l-0.7-0.1l-0.7-0.1
			l-0.6-0.2l-0.6-0.2L121.8,40.1L121.8,40.1z"/>
		<path class="st0" d="M137.6,22.4l-0.2-3.1l0.5-0.2l0.6-0.2l0.6-0.2l0.6-0.2l0.3-0.1l0.3-0.1l0.3-0.1l0.3,0l0.3,0l0.4,0l0.4,0h0.4
			l0.6,0l0.5,0l0.5,0.1l0.5,0.1l0.4,0.1l0.4,0.1l0.4,0.1l0.4,0.2l0.3,0.2l0.3,0.2l0.3,0.2l0.3,0.3l0.2,0.3l0.2,0.3l0.2,0.3L148,21
			l0.1,0.4l0.1,0.4l0.1,0.4l0.1,0.4l0,0.4l0,0.5l0,0.5l0,0.5v6.9v0.7l0,0.7l0.1,0.7l0.1,0.7h-3.4l-0.1-0.4l-0.1-0.5l0-0.6l0-0.7H145
			l-0.2,0.3l-0.2,0.3l-0.2,0.3l-0.2,0.2l-0.2,0.2l-0.3,0.2l-0.2,0.2l-0.3,0.2l-0.3,0.1l-0.3,0.1l-0.3,0.1l-0.3,0.1l-0.3,0.1l-0.3,0
			l-0.4,0h-0.4h-0.3l-0.3,0l-0.3,0l-0.3-0.1l-0.3-0.1l-0.3-0.1l-0.3-0.1l-0.3-0.1l-0.3-0.1l-0.3-0.1l-0.2-0.2l-0.2-0.2L137,33
			l-0.2-0.2l-0.2-0.2l-0.1-0.3l-0.2-0.3l-0.1-0.3l-0.1-0.3l-0.1-0.3l-0.1-0.3l0-0.3l0-0.3v-0.3l0-0.5l0-0.5l0.1-0.4l0.1-0.4l0.1-0.4
			l0.2-0.4l0.2-0.3l0.3-0.3l0.3-0.3l0.3-0.3l0.3-0.3l0.4-0.2l0.4-0.2l0.4-0.2l0.4-0.1l0.4-0.1l0.5-0.1l0.5-0.1l0.5-0.1l0.6-0.1
			l0.6,0l0.6,0l0.6,0h0.6h0.8v-0.6v-0.3l0-0.3l0-0.3l-0.1-0.3l-0.1-0.3l-0.1-0.2l-0.1-0.2l-0.2-0.2l-0.2-0.2l-0.2-0.2l-0.3-0.1
			l-0.3-0.1L143,21l-0.3-0.1l-0.3,0l-0.4,0h-0.3l-0.3,0l-0.3,0l-0.3,0.1l-0.3,0.1l-0.3,0.1l-0.3,0.1l-0.3,0.1l-0.6,0.3l-0.5,0.3
			l-0.4,0.3L137.6,22.4L137.6,22.4z M144.9,27.4v-0.9h-0.3H144l-0.6,0l-0.6,0l-0.5,0.1l-0.5,0.1l-0.4,0.1L141,27l-0.3,0.1l-0.2,0.1
			l-0.2,0.1l-0.1,0.1l-0.1,0.1l-0.1,0.1l-0.1,0.1l-0.1,0.1l-0.1,0.1l-0.1,0.1l-0.1,0.1l-0.1,0.2l0,0.2l0,0.2l0,0.2l0,0.2v0.2l0,0.3
			l0,0.2l0,0.2l0.1,0.2l0.1,0.2l0.1,0.2l0.1,0.2l0.1,0.2l0.2,0.1l0.2,0.2l0.2,0.1l0.2,0.1l0.2,0.1l0.3,0.1l0.3,0l0.3,0l0.4,0
			l0.4-0.1l0.2,0l0.2-0.1l0.2-0.1l0.1-0.1l0.1-0.1l0.1-0.1l0.1-0.1l0.1-0.1l0.1-0.1L144,31l0.1-0.1l0.1-0.1l0.2-0.3l0.1-0.3l0.1-0.4
			l0.1-0.4l0.1-0.4l0-0.5l0-0.5V27.4L144.9,27.4z"/>
		<polygon class="st0" points="150.6,34.2 150.6,21 150.6,20.2 150.6,19.5 150.6,18.9 150.5,18.4 154.1,18.4 154.1,18.7 154.1,18.9 
			154.1,19.2 154.1,19.5 154.1,19.9 154.2,20.2 154.2,20.5 154.2,20.9 154.3,20.9 154.2,20.9 154.4,20.6 154.6,20.3 154.8,20.1 
			155,19.8 155.2,19.6 155.4,19.4 155.6,19.2 155.8,19 156.1,18.8 156.4,18.6 156.7,18.5 157,18.4 157.3,18.3 157.7,18.2 158,18.2 
			158.5,18.2 158.9,18.2 159.3,18.2 159.7,18.3 160,18.4 160.3,18.5 160.7,18.6 161,18.8 161.2,19 161.5,19.2 161.7,19.4 
			161.9,19.6 162.1,19.9 162.3,20.1 162.4,20.4 162.6,20.7 162.7,21 162.8,21.4 162.9,21.7 162.9,22.1 163,22.4 163.1,22.8 
			163.1,23.2 163.1,23.6 163.1,24 163.1,34.2 159.3,34.2 159.3,24.8 159.3,24.3 159.3,23.9 159.3,23.5 159.2,23.2 159.1,22.9 
			159,22.6 158.9,22.3 158.8,22.1 158.7,21.9 158.5,21.8 158.3,21.6 158.1,21.5 157.9,21.4 157.7,21.4 157.4,21.3 157.1,21.3 
			156.8,21.3 156.5,21.4 156.2,21.5 155.9,21.6 155.7,21.7 155.5,21.9 155.3,22.1 155.1,22.3 154.9,22.6 154.8,22.9 154.7,23.2 
			154.6,23.5 154.5,23.9 154.5,24.2 154.4,24.6 154.4,25 154.4,34.2 150.6,34.2 		"/>
		<path class="st0" d="M165.5,34.2V18.4h3.8v15.8H165.5L165.5,34.2z M165.5,15.5v-3.8h3.9v3.8H165.5L165.5,15.5z"/>
		<polygon class="st0" points="171.2,33.7 171.3,30.6 171.5,30.6 171.7,30.7 172,30.8 172.3,31 172.7,31.1 173,31.2 173.4,31.3 
			173.8,31.4 174.2,31.5 174.5,31.5 174.9,31.6 175.3,31.6 175.6,31.6 175.9,31.6 176.1,31.5 176.4,31.5 176.6,31.4 176.8,31.4 
			177,31.3 177.1,31.2 177.3,31.1 177.4,31 177.5,30.8 177.6,30.7 177.7,30.6 177.7,30.4 177.7,30.2 177.7,30 177.7,29.9 
			177.7,29.8 177.7,29.6 177.7,29.5 177.6,29.3 177.4,29.1 177.3,28.9 177.2,28.8 177,28.7 176.9,28.6 176.5,28.3 176,28 
			174.5,27.1 174,26.8 173.6,26.6 173.3,26.4 173.1,26.2 172.9,26.1 172.7,25.9 172.4,25.7 172.2,25.4 172,25.2 171.7,24.9 
			171.6,24.6 171.4,24.2 171.3,23.9 171.2,23.5 171.2,23.1 171.2,22.7 171.2,22.4 171.2,22.1 171.2,21.9 171.3,21.6 171.4,21.3 
			171.5,21.1 171.7,20.8 171.8,20.5 172,20.3 172.2,20 172.4,19.8 172.6,19.6 172.9,19.4 173.2,19.2 173.5,19 173.8,18.8 
			174.1,18.7 174.4,18.5 174.7,18.4 175.1,18.4 175.5,18.3 175.8,18.2 176.2,18.2 176.6,18.2 177.1,18.2 177.6,18.2 178.1,18.3 
			178.6,18.4 179.1,18.4 179.6,18.5 180.1,18.7 180.6,18.8 180.4,21.8 179.9,21.6 179.5,21.5 179,21.4 178.6,21.3 178.2,21.2 
			177.8,21.1 177.4,21.1 177,21.1 176.8,21.1 176.5,21.1 176.3,21.1 176.1,21.2 175.9,21.2 175.7,21.3 175.5,21.4 175.4,21.5 
			175.3,21.6 175.2,21.7 175,21.8 175,21.9 174.9,22.1 174.9,22.3 174.9,22.4 174.8,22.6 174.8,22.8 174.9,22.9 174.9,23 
			174.9,23.1 175,23.2 175,23.3 175.1,23.5 175.2,23.6 175.4,23.8 175.7,24 176.1,24.3 176.6,24.6 178.5,25.8 178.9,26.1 
			179.2,26.3 179.6,26.6 179.8,26.8 180.1,27 180.4,27.3 180.6,27.5 180.8,27.7 180.9,27.9 181.1,28.1 181.2,28.4 181.3,28.6 
			181.3,28.9 181.4,29.2 181.4,29.5 181.4,29.8 181.4,30.1 181.4,30.3 181.4,30.6 181.3,30.8 181.3,31.1 181.2,31.3 181.1,31.5 
			181,31.7 180.9,32 180.8,32.2 180.7,32.4 180.5,32.5 180.4,32.7 180.2,32.9 180,33.1 179.8,33.2 179.6,33.4 179.4,33.5 
			179.1,33.7 178.9,33.8 178.7,33.9 178.4,34 178.2,34.1 177.9,34.2 177.6,34.2 177.4,34.3 177.1,34.4 176.8,34.4 176.2,34.5 
			175.5,34.5 174.9,34.5 174.3,34.4 173.7,34.4 173.1,34.3 172.6,34.1 172.1,34 171.6,33.9 171.2,33.7 		"/>
		<path class="st0" d="M183.8,22.4l-0.2-3.1l0.5-0.2l0.6-0.2l0.6-0.2l0.6-0.2l0.3-0.1l0.3-0.1l0.3-0.1l0.3,0l0.4,0l0.4,0l0.4,0h0.4
			l0.6,0l0.6,0l0.5,0.1l0.5,0.1l0.4,0.1l0.4,0.1l0.4,0.1l0.4,0.2l0.3,0.2l0.3,0.2l0.3,0.2l0.2,0.3l0.2,0.3l0.2,0.3l0.1,0.3l0.1,0.3
			l0.1,0.4l0.1,0.4l0.1,0.4l0.1,0.4l0.1,0.4l0,0.5l0,0.5v0.5v6.9l0,0.7l0,0.7l0.1,0.7l0.1,0.7h-3.5l-0.1-0.4l-0.1-0.5l0-0.6l0-0.7h0
			l-0.2,0.3l-0.2,0.3l-0.2,0.3l-0.2,0.2l-0.2,0.2l-0.2,0.2l-0.3,0.2l-0.2,0.2l-0.3,0.1l-0.3,0.1l-0.3,0.1l-0.3,0.1l-0.3,0.1l-0.4,0
			l-0.4,0h-0.4h-0.3l-0.3,0l-0.3,0l-0.3-0.1l-0.3-0.1l-0.3-0.1l-0.3-0.1l-0.3-0.1l-0.3-0.1l-0.3-0.1l-0.2-0.2l-0.2-0.2l-0.2-0.2
			l-0.2-0.2l-0.2-0.2l-0.2-0.3l-0.1-0.3l-0.1-0.3l-0.1-0.3l-0.1-0.3l-0.1-0.3l-0.1-0.3l0-0.3l0-0.3l0-0.5l0-0.5l0.1-0.4l0.1-0.4
			l0.2-0.4l0.2-0.4l0.2-0.3l0.2-0.3l0.3-0.3l0.3-0.3l0.3-0.3l0.3-0.2l0.4-0.2l0.4-0.2l0.4-0.1l0.4-0.1l0.5-0.1l0.5-0.1l0.5-0.1
			l0.6-0.1l0.6,0l0.6,0l0.6,0h0.6h0.8v-0.6l0-0.3l0-0.3L191,23l-0.1-0.3l-0.1-0.3l-0.1-0.2l-0.1-0.2l-0.2-0.2l-0.2-0.2l-0.2-0.2
			l-0.2-0.1l-0.3-0.1l-0.3-0.1l-0.3-0.1l-0.3,0l-0.4,0h-0.3l-0.3,0l-0.3,0l-0.3,0.1l-0.3,0.1l-0.3,0.1l-0.3,0.1l-0.3,0.1l-0.6,0.3
			l-0.5,0.3l-0.4,0.3L183.8,22.4L183.8,22.4z M191.1,27.4v-0.9h-0.3h-0.6l-0.6,0l-0.6,0l-0.5,0.1l-0.5,0.1l-0.4,0.1l-0.4,0.1
			l-0.3,0.1l-0.1,0.1l-0.1,0.1l-0.2,0.1l-0.1,0.1l-0.1,0.1l-0.1,0.1l-0.1,0.1l-0.1,0.1l-0.1,0.1l-0.1,0.1l-0.1,0.2l0,0.2l0,0.2
			l0,0.2v0.2l0,0.2l0,0.3l0,0.2l0.1,0.2l0.1,0.2l0.1,0.2l0.1,0.2l0.1,0.2l0.2,0.2l0.2,0.1l0.2,0.2l0.2,0.1l0.2,0.1l0.2,0.1l0.2,0.1
			l0.3,0l0.3,0l0.4,0l0.4-0.1l0.2,0l0.2-0.1l0.1-0.1l0.2-0.1l0.1-0.1l0.1-0.1l0.1-0.1l0.1-0.1l0.1-0.1l0.1-0.1l0.1-0.1l0.1-0.1
			l0.2-0.3l0.1-0.3l0.1-0.4l0.1-0.4l0.1-0.4l0.1-0.5l0-0.5L191.1,27.4L191.1,27.4z"/>
		<polygon class="st0" points="198.2,18.4 198.2,15.2 202,14 202,18.4 205.2,18.4 205.2,21.2 202,21.2 202,29.4 202.1,29.7 
			202.1,30 202.1,30.2 202.1,30.4 202.2,30.7 202.3,30.8 202.4,31 202.5,31.1 202.6,31.2 202.7,31.3 202.8,31.4 203,31.5 
			203.2,31.5 203.4,31.6 203.6,31.6 203.8,31.6 204,31.6 204.2,31.6 204.4,31.5 204.6,31.5 204.7,31.5 204.9,31.4 205.1,31.3 
			205.2,31.3 205.2,34 204.9,34.1 204.6,34.2 204.3,34.3 204,34.4 203.7,34.4 203.4,34.5 203,34.5 202.7,34.5 202.1,34.5 
			201.6,34.4 201.2,34.3 200.7,34.2 200.5,34.1 200.3,34.1 200.2,34 200,33.9 199.8,33.8 199.7,33.7 199.5,33.5 199.4,33.4 
			199.2,33.2 199.1,33.1 199,32.9 198.9,32.8 198.8,32.6 198.7,32.4 198.6,32.2 198.5,32 198.4,31.7 198.4,31.5 198.3,31.3 
			198.3,31 198.3,30.5 198.2,29.9 198.2,21.2 195.7,21.2 195.7,18.4 198.2,18.4 		"/>
		<path class="st0" d="M206.6,34.2V18.4h3.8v15.8H206.6L206.6,34.2z M206.6,15.5v-3.8h3.9v3.8H206.6L206.6,15.5z"/>
		<path class="st0" d="M216.3,26.3l0,0.7l0,0.6l0.1,0.6l0.1,0.5l0.1,0.5l0.1,0.4l0.1,0.4l0.2,0.4l0.1,0.2l0.1,0.1l0.1,0.1l0.1,0.1
			l0.1,0.1l0.1,0.1l0.1,0.1l0.1,0.1l0.1,0.1l0.1,0.1l0.2,0.1l0.2,0l0.2,0l0.2,0l0.2,0h0.2h0.2l0.2,0l0.2,0l0.2,0l0.2,0l0.1-0.1
			l0.2-0.1l0.1-0.1l0.1-0.1l0.1-0.1l0.1-0.1l0.1-0.1l0.1-0.1l0.1-0.1l0.1-0.1l0.1-0.2l0.2-0.4l0.1-0.4l0.1-0.4l0.1-0.5l0.1-0.5
			l0.1-0.6l0-0.6l0-0.7l0-0.6l0-0.6l0-0.5l-0.1-0.5l-0.1-0.5l-0.1-0.4l-0.1-0.4l-0.2-0.4l-0.1-0.2l-0.1-0.2l-0.1-0.1l-0.1-0.1
			l-0.1-0.1l-0.1-0.1l-0.1-0.1l-0.1-0.1l-0.2-0.1l-0.1-0.1l-0.2-0.1l-0.2,0l-0.2,0l-0.2,0l-0.2,0h-0.2h-0.2l-0.2,0l-0.2,0l-0.2,0
			l-0.2,0l-0.2,0.1l-0.1,0.1l-0.2,0.1l-0.1,0.1l-0.2,0.1l-0.1,0.1l-0.1,0.1l-0.1,0.1l-0.1,0.2l-0.1,0.2l-0.1,0.2l-0.2,0.4l-0.1,0.4
			l-0.1,0.4l-0.1,0.5l-0.1,0.5l0,0.5l0,0.5V26.3L216.3,26.3z M212.4,26.3v-0.5l0-0.6l0-0.5l0.1-0.5l0.1-0.5l0.1-0.4l0.1-0.4l0.1-0.4
			l0.2-0.4l0.2-0.4l0.2-0.3l0.2-0.3l0.2-0.3l0.2-0.3l0.3-0.3l0.2-0.3l0.3-0.2l0.3-0.2l0.3-0.2l0.3-0.2l0.3-0.2l0.3-0.1l0.3-0.1
			l0.3-0.1l0.3-0.1l0.3-0.1l0.3-0.1l0.3,0l0.3,0l0.3,0l0.3,0h0.3l0.4,0l0.4,0l0.4,0.1l0.4,0.1l0.4,0.1l0.4,0.1l0.4,0.1l0.4,0.2
			l0.4,0.2l0.4,0.2l0.3,0.3l0.3,0.3l0.3,0.3l0.3,0.4l0.3,0.4l0.3,0.4l0.1,0.2l0.1,0.2l0.1,0.3l0.1,0.3l0.2,0.6l0.1,0.6l0.1,0.6
			l0.1,0.7l0,0.7l0,0.7l0,0.8l0,0.7l-0.1,0.7l-0.1,0.6l-0.1,0.6l-0.2,0.6l-0.1,0.3l-0.1,0.3l-0.1,0.2l-0.1,0.2l-0.3,0.4l-0.3,0.4
			l-0.3,0.4l-0.3,0.3l-0.3,0.3l-0.3,0.3l-0.4,0.2l-0.4,0.2l-0.4,0.2l-0.4,0.1l-0.4,0.1l-0.4,0.1l-0.4,0.1l-0.4,0l-0.4,0h-0.4H219
			l-0.4,0l-0.3,0l-0.3,0l-0.3-0.1l-0.3-0.1l-0.3-0.1l-0.3-0.1l-0.3-0.1l-0.3-0.1l-0.3-0.1l-0.3-0.2l-0.3-0.2l-0.3-0.2l-0.3-0.2
			l-0.3-0.2l-0.2-0.2l-0.2-0.3l-0.2-0.3l-0.2-0.3l-0.2-0.3l-0.2-0.3l-0.2-0.4l-0.1-0.4l-0.1-0.4l-0.1-0.4l-0.1-0.4l-0.1-0.5
			l-0.1-0.5l0-0.5l0-0.5V26.3L212.4,26.3z"/>
		<polygon class="st0" points="227.9,34.2 227.9,21 227.9,20.2 227.9,19.5 227.9,18.9 227.8,18.4 231.4,18.4 231.4,18.7 231.4,18.9 
			231.4,19.2 231.4,19.5 231.5,19.9 231.5,20.2 231.5,20.5 231.5,20.9 231.6,20.9 231.6,20.9 231.7,20.6 231.9,20.3 232.1,20.1 
			232.3,19.8 232.5,19.6 232.7,19.4 232.9,19.2 233.1,19 233.4,18.8 233.7,18.6 234,18.5 234.3,18.4 234.6,18.3 235,18.2 
			235.4,18.2 235.8,18.2 236.2,18.2 236.6,18.2 237,18.3 237.3,18.4 237.7,18.5 237.9,18.6 238.2,18.8 238.5,19 238.8,19.2 
			239,19.4 239.2,19.6 239.4,19.9 239.6,20.1 239.7,20.4 239.9,20.7 240,21 240.1,21.4 240.2,21.7 240.3,22.1 240.3,22.4 
			240.4,22.8 240.4,23.2 240.4,23.6 240.4,24 240.4,34.2 236.6,34.2 236.6,24.8 236.6,24.3 236.6,23.9 236.5,23.5 236.5,23.2 
			236.4,22.9 236.3,22.6 236.2,22.3 236.1,22.1 236,21.9 235.8,21.8 235.6,21.6 235.4,21.5 235.2,21.4 235,21.4 234.7,21.3 
			234.4,21.3 234.1,21.3 233.8,21.4 233.5,21.5 233.2,21.6 233,21.7 232.8,21.9 232.6,22.1 232.4,22.3 232.3,22.6 232.1,22.9 
			232,23.2 231.9,23.5 231.8,23.9 231.8,24.2 231.8,24.6 231.7,25 231.7,34.2 227.9,34.2 		"/>
		<polygon class="st0" points="93.8,63.6 93.8,50.4 93.8,49.8 93.8,49.1 93.8,48.5 93.7,47.8 97.5,47.8 97.5,48.1 97.6,48.4 
			97.6,48.7 97.6,49 97.6,49.4 97.6,49.7 97.6,50 97.6,50.3 97.7,50.3 97.9,50.1 98,49.8 98.2,49.5 98.4,49.3 98.6,49 98.8,48.8 
			99,48.6 99.3,48.4 99.5,48.2 99.8,48 100,47.9 100.3,47.8 100.7,47.7 101,47.7 101.3,47.6 101.7,47.6 102.2,47.6 102.6,47.7 
			103,47.7 103.4,47.9 103.7,48 104,48.1 104.2,48.3 104.5,48.5 104.7,48.6 104.8,48.8 105,49.1 105.2,49.3 105.4,49.6 105.5,49.8 
			105.6,50 105.7,50.1 105.9,49.8 106.1,49.6 106.3,49.3 106.5,49.1 106.8,48.9 107,48.6 107.2,48.5 107.4,48.3 107.7,48.1 108,48 
			108.2,47.9 108.5,47.8 108.8,47.7 109.2,47.7 109.6,47.6 110,47.6 110.4,47.6 110.7,47.7 111.1,47.7 111.4,47.8 111.8,47.9 
			112.1,48 112.4,48.2 112.6,48.4 112.9,48.6 113.1,48.8 113.3,49 113.5,49.3 113.7,49.5 113.8,49.8 113.9,50.2 114.1,50.5 
			114.2,50.9 114.2,51.2 114.3,51.6 114.4,52.1 114.4,52.5 114.5,52.9 114.5,53.4 114.5,53.9 114.5,63.6 110.7,63.6 110.7,53.7 
			110.7,53.3 110.7,53 110.6,52.7 110.6,52.4 110.5,52.1 110.4,51.9 110.3,51.6 110.2,51.5 110.1,51.3 109.9,51.1 109.7,51 
			109.6,50.9 109.4,50.8 109.1,50.8 108.9,50.8 108.7,50.7 108.4,50.8 108.1,50.8 107.8,50.9 107.6,51 107.3,51.1 107.1,51.3 
			106.9,51.5 106.8,51.7 106.6,52 106.5,52.2 106.3,52.5 106.3,52.8 106.2,53.1 106.1,53.4 106.1,53.7 106.1,54.1 106.1,63.6 
			102.3,63.6 102.3,53.7 102.3,53.3 102.2,53 102.2,52.7 102.1,52.4 102.1,52.1 102,51.9 101.9,51.6 101.8,51.5 101.6,51.3 
			101.5,51.1 101.3,51 101.2,50.9 100.9,50.8 100.7,50.8 100.5,50.8 100.2,50.7 99.9,50.8 99.7,50.8 99.4,50.9 99.2,51 98.9,51.1 
			98.7,51.3 98.5,51.5 98.3,51.7 98.2,52 98,52.2 97.9,52.5 97.8,52.8 97.7,53.1 97.7,53.4 97.7,53.7 97.6,54.1 97.6,63.6 
			93.8,63.6 		"/>
		<path class="st0" d="M119.9,55.7v0.7l0,0.6l0.1,0.6l0.1,0.5l0.1,0.5l0.1,0.4l0.1,0.4l0.2,0.4l0.1,0.2l0.1,0.2l0.1,0.1l0.1,0.1
			l0.1,0.1l0.1,0.1l0.1,0.1l0.1,0.1l0.2,0.1l0.1,0.1l0.1,0.1l0.2,0l0.2,0l0.2,0l0.2,0h0.2h0.2l0.2,0l0.2,0l0.2,0l0.2,0L124,61
			l0.2-0.1l0.1-0.1l0.1-0.1l0.1-0.1l0.1-0.1l0.1-0.1l0.1-0.1l0.1-0.1l0.1-0.2l0.1-0.2l0.2-0.4l0.2-0.4l0.1-0.4l0.1-0.5l0.1-0.5
			l0-0.6l0-0.6l0-0.7l0-0.6l0-0.6l-0.1-0.5l-0.1-0.5l-0.1-0.5l-0.1-0.5l-0.1-0.4l-0.2-0.4l-0.1-0.2l-0.1-0.2l-0.1-0.2l-0.1-0.2
			l-0.1-0.1l-0.1-0.1l-0.1-0.1l-0.2-0.1l-0.1-0.1l-0.2-0.1l-0.2-0.1l-0.2-0.1l-0.2,0l-0.2,0l-0.2,0H123h-0.2l-0.2,0l-0.2,0l-0.2,0
			l-0.2,0.1l-0.2,0.1l-0.2,0.1l-0.1,0.1l-0.1,0.1l-0.1,0.1l-0.1,0.1l-0.1,0.1l-0.1,0.1l-0.1,0.1l-0.1,0.2l-0.1,0.2l-0.1,0.4
			l-0.1,0.4l-0.1,0.5l-0.1,0.5l-0.1,0.5l0,0.5l0,0.6V55.7L119.9,55.7z M116,55.7v-0.6l0-0.5l0.1-0.5l0.1-0.5l0.1-0.5l0.1-0.4
			l0.1-0.4l0.1-0.4l0.2-0.4l0.2-0.4l0.2-0.3l0.2-0.3l0.2-0.3l0.2-0.3l0.2-0.3l0.3-0.2l0.3-0.2l0.3-0.2l0.3-0.2l0.3-0.2l0.3-0.1
			l0.3-0.1l0.3-0.1l0.3-0.1l0.3-0.1l0.3-0.1l0.3-0.1l0.3-0.1l0.3,0l0.3,0l0.3,0h0.3h0.4l0.4,0l0.4,0.1l0.4,0.1l0.4,0.1l0.4,0.1
			l0.4,0.1l0.4,0.2l0.4,0.2l0.4,0.2l0.3,0.3l0.3,0.3l0.3,0.3l0.3,0.4l0.3,0.4l0.3,0.4l0.1,0.2l0.1,0.3l0.1,0.2l0.1,0.3l0.2,0.5
			l0.1,0.6l0.1,0.6l0.1,0.7l0,0.7v0.7v0.7l0,0.7l-0.1,0.7l-0.1,0.6l-0.1,0.6l-0.2,0.6l-0.1,0.3l-0.1,0.3l-0.1,0.3l-0.1,0.2l-0.3,0.4
			l-0.3,0.4l-0.3,0.4l-0.3,0.3l-0.3,0.3l-0.3,0.3l-0.4,0.2l-0.4,0.2l-0.4,0.2l-0.4,0.1l-0.4,0.1l-0.4,0.1l-0.4,0.1l-0.4,0.1l-0.4,0
			l-0.4,0l-0.4,0l-0.4,0l-0.3,0l-0.3-0.1l-0.3-0.1l-0.3-0.1l-0.3-0.1l-0.3-0.1l-0.3-0.1l-0.3-0.1l-0.3-0.1l-0.3-0.2l-0.3-0.2
			l-0.3-0.2l-0.3-0.2l-0.3-0.2l-0.3-0.3l-0.2-0.3l-0.2-0.3l-0.2-0.3l-0.2-0.3l-0.2-0.4l-0.1-0.4l-0.1-0.4l-0.1-0.4l-0.1-0.4
			l-0.1-0.4l-0.1-0.5l-0.1-0.5l0-0.5l0-0.5V55.7L116,55.7z"/>
		<polygon class="st0" points="131.5,63.6 131.5,50.5 131.5,49.6 131.5,48.9 131.5,48.3 131.4,47.8 135,47.8 135,48.1 135,48.3 
			135,48.6 135,48.9 135.1,49.3 135.1,49.6 135.1,49.9 135.1,50.3 135.2,50.3 135.2,50.3 135.3,50 135.5,49.7 135.7,49.5 
			135.9,49.2 136.1,49 136.3,48.8 136.5,48.6 136.8,48.4 137,48.2 137.3,48 137.6,47.9 137.9,47.8 138.2,47.7 138.6,47.7 139,47.6 
			139.4,47.6 139.8,47.6 140.2,47.7 140.6,47.7 140.9,47.8 141.2,47.9 141.6,48 141.9,48.2 142.1,48.4 142.4,48.6 142.6,48.8 
			142.8,49 143,49.3 143.2,49.5 143.3,49.8 143.5,50.1 143.6,50.5 143.7,50.8 143.8,51.1 143.9,51.5 143.9,51.9 144,52.2 144,52.6 
			144,53 144,53.5 144,63.6 140.2,63.6 140.2,54.2 140.2,53.7 140.2,53.3 140.2,52.9 140.1,52.6 140,52.3 139.9,52 139.8,51.7 
			139.7,51.5 139.6,51.3 139.4,51.2 139.2,51.1 139.1,50.9 138.8,50.8 138.6,50.8 138.3,50.8 138.1,50.7 137.7,50.8 137.4,50.8 
			137.1,50.9 136.8,51 136.6,51.1 136.4,51.3 136.2,51.5 136,51.8 135.8,52 135.7,52.3 135.6,52.6 135.5,52.9 135.4,53.3 
			135.4,53.7 135.4,54 135.4,54.5 135.4,63.6 131.5,63.6 		"/>
		<path class="st0" d="M155.3,40.6h3.8V61v0.9l0,0.7l0,0.6l0.1,0.4h-3.6l0-0.5l0-0.6l0-0.6v-0.7h-0.1l-0.2,0.3l-0.2,0.3l-0.2,0.3
			l-0.2,0.3l-0.2,0.3l-0.2,0.2l-0.3,0.2l-0.3,0.2l-0.3,0.1l-0.3,0.1l-0.3,0.1l-0.3,0.1l-0.3,0.1l-0.3,0.1l-0.4,0l-0.4,0l-0.3,0
			l-0.3,0l-0.3,0l-0.3-0.1l-0.3-0.1l-0.3-0.1l-0.3-0.1l-0.3-0.1l-0.3-0.1l-0.2-0.2l-0.2-0.2l-0.2-0.2l-0.2-0.2l-0.2-0.3l-0.2-0.3
			l-0.2-0.3l-0.2-0.3l-0.2-0.3l-0.1-0.3l-0.1-0.3l-0.1-0.3l-0.1-0.3l-0.1-0.3L146,59l-0.1-0.4l-0.1-0.4l-0.1-0.4l-0.1-0.4l0-0.4
			l0-0.4v-0.4l0-0.4l0-0.6l0-0.6l0.1-0.6l0.1-0.6l0.1-0.6l0.1-0.5l0.1-0.5l0.1-0.5l0.2-0.4l0.2-0.4l0.2-0.4l0.2-0.4l0.3-0.3l0.3-0.3
			l0.3-0.3l0.3-0.3l0.3-0.2l0.3-0.2l0.3-0.2l0.4-0.1l0.4-0.1l0.4-0.1l0.4,0h0.4h0.4l0.4,0l0.3,0l0.3,0.1l0.3,0.1l0.3,0.1l0.3,0.1
			l0.3,0.2l0.2,0.2l0.2,0.2l0.2,0.2l0.2,0.2l0.2,0.2l0.1,0.2l0.1,0.3l0.1,0.3h0.1V40.6L155.3,40.6z M149.5,55.6v0.9l0,0.8l0,0.4
			l0,0.3l0,0.3l0.1,0.3l0.1,0.3l0.1,0.3l0.1,0.3l0.1,0.2l0.1,0.2l0.1,0.2l0.1,0.2l0.1,0.1l0.2,0.1l0.2,0.1l0.2,0.1l0.2,0.1l0.2,0.1
			l0.2,0.1l0.2,0h0.3h0.2l0.2,0l0.2,0l0.2,0l0.2,0l0.2-0.1l0.1-0.1l0.1-0.1l0.1-0.1l0.2-0.1l0.1-0.1l0.1-0.1l0.1-0.1l0.1-0.1
			l0.1-0.2l0.1-0.2l0.2-0.4l0.1-0.4l0.1-0.4l0.1-0.5l0.1-0.5l0.1-0.5l0-0.6l0-0.6l0-0.8l-0.1-0.7l0-0.3l0-0.3l-0.1-0.3l-0.1-0.3
			l-0.1-0.3l-0.1-0.3l-0.1-0.3l-0.1-0.3l-0.1-0.2l-0.1-0.2l-0.1-0.2l-0.2-0.2l-0.2-0.2l-0.2-0.1l-0.2-0.1l-0.2-0.1l-0.2-0.1l-0.2,0
			l-0.2,0h-0.2h-0.2l-0.2,0l-0.2,0l-0.2,0l-0.2,0.1l-0.1,0.1l-0.2,0.1l-0.1,0.1l-0.2,0.1l-0.1,0.1l-0.1,0.1l-0.1,0.1l-0.1,0.1
			l-0.1,0.1l-0.1,0.1l-0.1,0.1l-0.1,0.4l-0.1,0.4l-0.1,0.4l-0.1,0.5l-0.1,0.5l-0.1,0.5l0,0.6V55.6L149.5,55.6z"/>
		<path class="st0" d="M161.5,63.6V47.8h3.8v15.8H161.5L161.5,63.6z M161.5,44.9v-3.7h3.9v3.7H161.5L161.5,44.9z"/>
		<path class="st0" d="M168.8,51.8l-0.2-3.1l0.5-0.3l0.6-0.2l0.6-0.2l0.6-0.2l0.3-0.1l0.3-0.1l0.3,0l0.3-0.1l0.4,0l0.4,0l0.4,0h0.4
			h0.6l0.6,0l0.5,0.1l0.5,0.1l0.4,0.1l0.4,0.1l0.4,0.1l0.4,0.2l0.3,0.2l0.3,0.2l0.3,0.2l0.2,0.3l0.2,0.3l0.2,0.3l0.1,0.3l0.2,0.3
			l0.1,0.3l0.1,0.4l0.1,0.4l0.1,0.4l0.1,0.4l0,0.5l0,0.5V54v6.9l0,0.7l0,0.7l0.1,0.7l0.1,0.7h-3.5l-0.1-0.4l-0.1-0.5l0-0.6l0-0.7h0
			l-0.2,0.3l-0.2,0.3l-0.2,0.2l-0.2,0.2l-0.2,0.2l-0.2,0.2l-0.3,0.2l-0.3,0.1l-0.3,0.1l-0.3,0.1l-0.3,0.1l-0.3,0.1l-0.3,0.1l-0.4,0
			l-0.4,0l-0.4,0l-0.3,0l-0.3,0l-0.3,0l-0.3-0.1l-0.3-0.1l-0.3-0.1l-0.3-0.1l-0.3-0.1l-0.3-0.1l-0.3-0.2l-0.2-0.2l-0.2-0.2l-0.2-0.2
			l-0.2-0.2l-0.2-0.2l-0.2-0.3l-0.1-0.3l-0.2-0.3l-0.1-0.3l-0.1-0.3l-0.1-0.3L167,60l0-0.3l0-0.3l0-0.5l0-0.5l0.1-0.4l0.1-0.4
			l0.1-0.4l0.2-0.4l0.2-0.3L168,56l0.3-0.3l0.3-0.3l0.3-0.2l0.3-0.2l0.4-0.2l0.4-0.2l0.4-0.1l0.4-0.1l0.5-0.1l0.5-0.1l0.5-0.1
			l0.6-0.1l0.6-0.1l0.6,0l0.6,0h0.6h0.8v-0.6l0-0.3l0-0.3l-0.1-0.3l-0.1-0.3l-0.1-0.3l-0.1-0.3l-0.1-0.2l-0.2-0.2l-0.2-0.2l-0.2-0.2
			l-0.2-0.1l-0.3-0.1l-0.3-0.1l-0.3-0.1l-0.3,0h-0.4h-0.3l-0.3,0l-0.3,0l-0.3,0l-0.3,0.1l-0.3,0.1l-0.3,0.1l-0.3,0.1l-0.6,0.3
			l-0.5,0.3l-0.4,0.3L168.8,51.8L168.8,51.8z M176,56.8v-0.9h-0.3l-0.6,0l-0.6,0l-0.6,0.1l-0.5,0.1l-0.5,0.1l-0.4,0.1l-0.4,0.1
			l-0.3,0.2l-0.1,0.1l-0.1,0.1l-0.1,0.1l-0.1,0.1l-0.1,0.1l-0.1,0.1l-0.1,0.1l-0.1,0.1l-0.1,0.1l-0.1,0.2l-0.1,0.2l0,0.2l0,0.2
			l0,0.2v0.2l0,0.2l0,0.3l0,0.3l0.1,0.2l0.1,0.2l0.1,0.2l0.1,0.2l0.1,0.2l0.2,0.2l0.2,0.1l0.2,0.1l0.2,0.1l0.2,0.1l0.2,0.1l0.2,0
			l0.3,0h0.3l0.4,0l0.4,0l0.2,0l0.2,0l0.1-0.1l0.1-0.1l0.2-0.1l0.1-0.1l0.2-0.1l0.1-0.1l0.1-0.1l0.1-0.1l0.1-0.1l0.1-0.1l0.2-0.3
			l0.1-0.3l0.1-0.4l0.1-0.4l0.1-0.4l0.1-0.5l0-0.5L176,56.8L176,56.8z"/>
		<polygon class="st0" points="182.1,63.6 182.1,40.6 185.9,40.6 185.9,63.6 182.1,63.6 		"/>
		<path class="st0" d="M199.7,59.9l0.2,3l-0.6,0.3l-0.6,0.2l-0.6,0.2l-0.6,0.1l-0.6,0.1l-0.6,0.1l-0.6,0l-0.6,0l-0.6,0l-0.6,0
			l-0.6-0.1l-0.5-0.1l-0.5-0.1l-0.5-0.2l-0.4-0.2l-0.4-0.3l-0.4-0.3l-0.4-0.3L190,62l-0.3-0.3l-0.3-0.4l-0.3-0.4l-0.2-0.4l-0.2-0.4
			l-0.2-0.4l-0.1-0.5l-0.2-0.5l-0.1-0.5l-0.1-0.5l-0.1-0.5l0-0.5l0-0.6l0-0.6l0-0.6l0.1-0.6l0.1-0.5l0.1-0.5l0.1-0.5l0.2-0.5
			l0.2-0.5l0.2-0.5l0.2-0.4l0.3-0.4l0.3-0.4l0.3-0.4l0.3-0.3l0.3-0.3l0.4-0.3l0.4-0.3l0.4-0.2l0.4-0.2l0.4-0.2l0.4-0.1l0.4-0.1
			l0.5-0.1h0.5h0.3l0.3,0l0.3,0l0.3,0.1l0.3,0l0.3,0.1l0.3,0.1l0.3,0.1l0.3,0.1l0.3,0.1l0.3,0.1l0.3,0.2l0.3,0.2l0.2,0.2l0.2,0.2
			l0.2,0.2l0.2,0.3l0.2,0.3l0.2,0.3l0.2,0.3l0.2,0.3l0.1,0.4l0.1,0.4l0.1,0.4l0.1,0.4l0.1,0.4l0.1,0.5l0.1,0.5l0.1,0.5l0,0.5l0,0.6
			V56v0.7h-9.1v0.5l0.1,0.5l0.1,0.4l0.1,0.4l0.1,0.4l0.2,0.4l0.2,0.3l0.2,0.3l0.1,0.1l0.1,0.1l0.2,0.1l0.1,0.1l0.1,0.1l0.2,0.1
			l0.2,0.1l0.2,0.1l0.2,0.1l0.2,0.1l0.2,0l0.2,0l0.5,0.1h0.5h0.5l0.5,0l0.4,0l0.4-0.1l0.4-0.1l0.4-0.1l0.3-0.1l0.3-0.1l0.3-0.1
			l0.3-0.1l0.2-0.1L199.7,59.9L199.7,59.9z M191.6,54.4h5.4v-0.5l0-0.5l-0.1-0.4l-0.1-0.4l-0.1-0.4l-0.1-0.3l-0.1-0.3l-0.2-0.3
			l-0.2-0.2l-0.2-0.2l-0.2-0.2l-0.2-0.1l-0.3-0.1l-0.3-0.1l-0.3,0l-0.3,0l-0.3,0l-0.3,0.1l-0.2,0l-0.1,0l-0.1,0.1l-0.1,0.1l-0.1,0.1
			l-0.1,0.1l-0.1,0.1l-0.1,0.1l-0.2,0.3l-0.2,0.3l-0.2,0.3l-0.1,0.3l-0.1,0.3l-0.1,0.4l-0.1,0.4l0,0.4l0,0.4V54.4L191.6,54.4z"/>
		<path class="st0" d="M219.5,40.6h3.8V61v0.9l0,0.7l0,0.6l0.1,0.4h-3.6l0-0.5l0-0.6l0-0.6v-0.7h-0.1l-0.2,0.3l-0.2,0.3l-0.2,0.3
			l-0.2,0.3l-0.2,0.3l-0.2,0.2l-0.3,0.2l-0.3,0.2l-0.3,0.1l-0.3,0.1l-0.3,0.1l-0.3,0.1l-0.3,0.1l-0.3,0.1l-0.4,0l-0.4,0l-0.3,0
			l-0.3,0l-0.3,0l-0.3-0.1l-0.3-0.1l-0.3-0.1l-0.3-0.1l-0.3-0.1l-0.3-0.1l-0.2-0.2l-0.2-0.2l-0.2-0.2l-0.2-0.2l-0.2-0.3l-0.2-0.3
			l-0.2-0.3l-0.2-0.3l-0.2-0.3l-0.1-0.3l-0.1-0.3l-0.1-0.3l-0.1-0.3l-0.1-0.3l-0.1-0.4l-0.1-0.4l-0.1-0.4l-0.1-0.4l-0.1-0.4l0-0.4
			l0-0.4v-0.4l0-0.4l0-0.6l0-0.6l0.1-0.6l0.1-0.6l0.1-0.6l0.1-0.5l0.1-0.5l0.1-0.5l0.2-0.4l0.2-0.4l0.2-0.4l0.2-0.4l0.3-0.3l0.3-0.3
			l0.3-0.3l0.3-0.3l0.3-0.2l0.3-0.2l0.3-0.2l0.4-0.1l0.4-0.1l0.4-0.1l0.4,0h0.4h0.4l0.4,0l0.3,0l0.3,0.1l0.3,0.1l0.3,0.1l0.3,0.1
			l0.3,0.2l0.2,0.2l0.2,0.2l0.2,0.2l0.2,0.2l0.2,0.2l0.2,0.2l0.1,0.3l0.1,0.3h0.1V40.6L219.5,40.6z M213.6,55.6v0.9l0,0.8l0,0.4
			l0,0.3l0,0.3l0.1,0.3l0.1,0.3l0.1,0.3l0.1,0.3l0.1,0.2l0.1,0.2l0.1,0.2l0.1,0.2l0.1,0.1l0.2,0.1l0.2,0.1l0.2,0.1l0.2,0.1l0.2,0.1
			l0.2,0.1l0.2,0h0.3h0.2l0.2,0l0.2,0l0.2,0l0.2,0l0.2-0.1l0.1-0.1l0.2-0.1l0.1-0.1l0.1-0.1l0.1-0.1l0.1-0.1l0.1-0.1l0.1-0.1
			l0.1-0.2l0.1-0.2l0.2-0.4l0.2-0.4l0.1-0.4l0.1-0.5l0.1-0.5l0.1-0.5l0-0.6l0-0.6l0-0.8l-0.1-0.7l0-0.3l0-0.3l-0.1-0.3l-0.1-0.3
			l-0.1-0.3l-0.1-0.3l-0.1-0.3l-0.1-0.3l-0.1-0.2l-0.1-0.2l-0.1-0.2l-0.2-0.2l-0.2-0.2l-0.2-0.1l-0.2-0.1l-0.2-0.1l-0.2-0.1l-0.2,0
			l-0.2,0h-0.2h-0.2l-0.2,0l-0.2,0l-0.2,0l-0.2,0.1l-0.2,0.1l-0.1,0.1l-0.2,0.1l-0.1,0.1l-0.1,0.1l-0.1,0.1l-0.1,0.1l-0.1,0.1
			l-0.1,0.1l-0.1,0.1l-0.1,0.1l-0.1,0.4l-0.1,0.4l-0.1,0.4l-0.1,0.5l-0.1,0.5l-0.1,0.5l0,0.6V55.6L213.6,55.6z"/>
		<path class="st0" d="M236.8,59.9l0.2,3l-0.6,0.3l-0.6,0.2l-0.6,0.2l-0.6,0.1l-0.6,0.1l-0.6,0.1l-0.6,0l-0.6,0l-0.6,0l-0.6,0
			l-0.6-0.1l-0.5-0.1l-0.5-0.1l-0.5-0.2l-0.4-0.2l-0.4-0.3l-0.4-0.3l-0.4-0.3L227,62l-0.3-0.3l-0.3-0.4l-0.3-0.4l-0.2-0.4l-0.2-0.4
			l-0.2-0.4l-0.2-0.5l-0.1-0.5l-0.1-0.5l-0.1-0.5l-0.1-0.5l0-0.5V56v-0.6l0-0.6l0.1-0.6l0.1-0.5l0.1-0.5l0.1-0.5l0.1-0.5l0.2-0.5
			l0.2-0.5l0.2-0.4l0.3-0.4l0.3-0.4l0.3-0.4l0.3-0.3l0.3-0.3l0.4-0.3l0.4-0.3l0.4-0.2l0.4-0.2l0.4-0.2l0.4-0.1l0.5-0.1l0.4-0.1h0.5
			h0.3l0.3,0l0.3,0l0.3,0.1l0.3,0l0.3,0.1l0.3,0.1L234,48l0.3,0.1l0.3,0.1l0.3,0.1l0.3,0.2l0.3,0.2l0.2,0.2l0.2,0.2l0.2,0.2l0.2,0.3
			l0.2,0.3l0.2,0.3l0.2,0.3l0.2,0.3l0.1,0.4l0.1,0.4l0.1,0.4l0.1,0.4l0.1,0.4l0.1,0.5l0.1,0.5l0.1,0.5l0,0.5l0,0.6V56v0.7h-9.1v0.5
			l0,0.5l0.1,0.4l0.1,0.4L229,59l0.2,0.4l0.2,0.3l0.2,0.3l0.1,0.1l0.1,0.1l0.1,0.1l0.1,0.1l0.2,0.1l0.2,0.1l0.2,0.1l0.2,0.1l0.2,0.1
			l0.2,0.1l0.2,0l0.2,0l0.5,0.1h0.5h0.5l0.5,0l0.4,0l0.4-0.1l0.4-0.1l0.3-0.1l0.3-0.1l0.3-0.1l0.3-0.1l0.3-0.1l0.2-0.1L236.8,59.9
			L236.8,59.9z M228.6,54.4h5.4v-0.5l0-0.5l0-0.4l-0.1-0.4l-0.1-0.4l-0.1-0.3l-0.1-0.3l-0.2-0.3l-0.2-0.2l-0.2-0.2l-0.2-0.2
			l-0.3-0.1l-0.3-0.1l-0.3-0.1l-0.3,0l-0.3,0l-0.3,0l-0.3,0.1l-0.1,0l-0.2,0l-0.1,0.1l-0.1,0.1l-0.2,0.1l-0.1,0.1l-0.1,0.1l-0.1,0.1
			l-0.2,0.3l-0.2,0.3l-0.2,0.3l-0.2,0.3l-0.1,0.3l-0.1,0.4l-0.1,0.4l0,0.4l0,0.4V54.4L228.6,54.4z"/>
		<polygon class="st0" points="247.7,63.6 247.7,40.6 251.5,40.6 251.5,63.6 247.7,63.6 		"/>
		<path class="st0" d="M254.9,51.8l-0.2-3.1l0.6-0.3l0.6-0.2l0.6-0.2l0.6-0.2l0.3-0.1l0.3-0.1l0.3,0l0.3-0.1l0.4,0l0.4,0l0.4,0h0.4
			h0.6l0.5,0l0.5,0.1l0.5,0.1l0.4,0.1l0.4,0.1l0.4,0.1l0.3,0.2l0.3,0.2l0.3,0.2l0.3,0.2l0.3,0.3l0.2,0.3l0.2,0.3l0.2,0.3l0.1,0.3
			l0.1,0.3l0.1,0.4l0.1,0.4l0.1,0.4l0.1,0.4l0,0.5l0,0.5V54v6.9l0,0.7l0,0.7l0.1,0.7l0.1,0.7h-3.4l-0.1-0.4l-0.1-0.5l0-0.6v-0.7
			h-0.1l-0.2,0.3l-0.2,0.3l-0.2,0.2l-0.2,0.2l-0.2,0.2l-0.2,0.2l-0.2,0.2l-0.3,0.1l-0.3,0.1l-0.3,0.1l-0.3,0.1l-0.3,0.1l-0.3,0.1
			l-0.3,0l-0.4,0l-0.4,0l-0.3,0l-0.3,0l-0.3,0l-0.3-0.1l-0.3-0.1l-0.3-0.1l-0.3-0.1l-0.3-0.1l-0.3-0.1l-0.2-0.2l-0.3-0.2l-0.2-0.2
			l-0.2-0.2l-0.2-0.2l-0.2-0.2l-0.2-0.3l-0.1-0.3l-0.1-0.3l-0.1-0.3l-0.1-0.3l-0.1-0.3l0-0.3l0-0.3v-0.3v-0.5l0.1-0.5l0.1-0.4
			l0.1-0.4l0.1-0.4l0.2-0.4l0.2-0.3l0.2-0.3l0.3-0.3l0.3-0.3l0.3-0.2l0.3-0.2l0.4-0.2l0.4-0.2l0.4-0.1l0.4-0.1l0.5-0.1l0.5-0.1
			l0.5-0.1L259,54l0.6-0.1l0.6,0l0.6,0h0.6h0.8v-0.6V53l0-0.3l-0.1-0.3l-0.1-0.3l-0.1-0.3l-0.1-0.3l-0.1-0.2l-0.2-0.2l-0.2-0.2
			l-0.2-0.2l-0.2-0.1l-0.3-0.1l-0.3-0.1l-0.3-0.1l-0.4,0h-0.4h-0.3l-0.3,0l-0.3,0l-0.3,0l-0.3,0.1l-0.3,0.1l-0.3,0.1l-0.3,0.1
			l-0.6,0.3l-0.5,0.3l-0.4,0.3L254.9,51.8L254.9,51.8z M262.2,56.8v-0.9h-0.3l-0.6,0l-0.6,0l-0.5,0.1l-0.5,0.1l-0.5,0.1l-0.4,0.1
			l-0.4,0.1l-0.4,0.2l-0.1,0.1l-0.1,0.1l-0.1,0.1l-0.1,0.1l-0.1,0.1l-0.1,0.1l-0.1,0.1l-0.1,0.1l-0.1,0.1l-0.1,0.2l0,0.2l0,0.2
			l0,0.2l0,0.2l0,0.2v0.2v0.3l0,0.3l0,0.2l0.1,0.2l0.1,0.2l0.1,0.2l0.1,0.2l0.1,0.2l0.2,0.1l0.2,0.1l0.2,0.1l0.2,0.1l0.2,0.1l0.2,0
			l0.3,0h0.3l0.4,0l0.4,0l0.2,0l0.2,0l0.2-0.1l0.1-0.1l0.1-0.1l0.1-0.1l0.1-0.1l0.1-0.1l0.1-0.1l0.1-0.1l0.1-0.1l0.1-0.1l0.2-0.3
			l0.1-0.3l0.1-0.4l0.1-0.4l0.1-0.4l0.1-0.5l0-0.5V56.8L262.2,56.8z"/>
		<polygon class="st0" points="275.9,63 276.1,59.5 276.6,59.8 277.2,60.1 277.5,60.2 277.7,60.3 278,60.4 278.3,60.5 278.6,60.6 
			278.9,60.6 279.2,60.7 279.5,60.7 280.1,60.8 280.7,60.8 281,60.8 281.3,60.8 281.7,60.7 282,60.6 282.2,60.5 282.5,60.4 
			282.8,60.2 283,60 283.2,59.8 283.4,59.6 283.6,59.4 283.7,59.1 283.8,58.8 283.9,58.4 283.9,58.1 283.9,57.7 283.9,57.5 
			283.9,57.2 283.8,57 283.8,56.7 283.7,56.5 283.6,56.3 283.4,56.1 283.3,56 283.1,55.8 282.9,55.6 282.7,55.4 282.4,55.3 
			281.8,54.9 281.1,54.5 279.2,53.4 278.7,53.1 278.3,52.9 278,52.6 277.6,52.3 277.3,52 277,51.7 276.8,51.4 276.5,51.1 
			276.3,50.7 276.1,50.4 276,50 275.9,49.6 275.7,49.1 275.7,48.7 275.6,48.2 275.6,47.8 275.6,47.3 275.7,46.9 275.7,46.4 
			275.9,46 276,45.7 276.1,45.3 276.3,44.9 276.5,44.6 276.8,44.3 277,44 277.3,43.7 277.6,43.4 277.9,43.2 278.3,43 278.6,42.8 
			279,42.6 279.4,42.4 279.8,42.3 280.2,42.2 280.6,42.1 281.1,42 281.5,42 281.9,41.9 282.4,41.9 282.8,41.9 283.2,41.9 283.6,42 
			284,42 284.3,42.1 284.7,42.1 285,42.2 285.2,42.2 285.5,42.3 285.8,42.3 286,42.4 286.2,42.5 286.6,42.6 286.9,42.7 286.7,46 
			286.1,45.8 285.6,45.6 285.1,45.4 284.7,45.3 284.3,45.2 283.8,45.1 283.2,45.1 282.7,45.1 282.3,45.1 282,45.1 281.7,45.1 
			281.4,45.2 281.1,45.3 280.9,45.4 280.6,45.6 280.4,45.7 280.3,45.9 280.1,46.1 280,46.3 279.9,46.5 279.8,46.8 279.7,47 
			279.7,47.3 279.7,47.6 279.7,47.8 279.7,48.1 279.7,48.3 279.8,48.5 279.9,48.7 280,48.9 280.1,49.1 280.2,49.2 280.5,49.5 
			280.9,49.8 281.4,50.1 281.9,50.5 284.3,51.7 284.7,52 285.2,52.3 285.6,52.6 286,52.9 286.3,53.2 286.6,53.5 286.9,53.8 
			287.1,54.1 287.3,54.4 287.5,54.8 287.6,55.2 287.8,55.6 287.9,56 287.9,56.5 288,57 288,57.5 288,58 287.9,58.5 287.8,59 
			287.7,59.4 287.6,59.9 287.5,60.3 287.3,60.7 287.1,61.1 286.8,61.4 286.5,61.8 286.2,62.1 286,62.4 285.6,62.6 285.3,62.8 
			284.9,63.1 284.5,63.2 284.1,63.4 283.7,63.6 283.2,63.7 282.8,63.8 282.3,63.9 281.8,63.9 281.3,63.9 280.8,64 280,63.9 
			279.2,63.9 278.5,63.8 277.9,63.7 277.6,63.6 277.3,63.6 277,63.5 276.8,63.4 276.6,63.3 276.3,63.2 276.1,63.1 275.9,63 		"/>
		<path class="st0" d="M290.8,51.8l-0.2-3.1l0.6-0.3l0.6-0.2l0.6-0.2l0.6-0.2l0.3-0.1l0.3-0.1l0.3,0l0.3-0.1l0.4,0l0.4,0l0.4,0h0.4
			h0.6l0.5,0l0.5,0.1l0.5,0.1l0.4,0.1l0.4,0.1l0.4,0.1l0.3,0.2l0.3,0.2l0.3,0.2l0.3,0.2l0.3,0.3l0.2,0.3l0.2,0.3l0.2,0.3l0.1,0.3
			l0.1,0.3l0.1,0.4l0.1,0.4l0.1,0.4l0.1,0.4l0,0.5l0,0.5l0,0.5v6.9v0.7l0,0.7l0.1,0.7l0.1,0.7h-3.4l-0.1-0.4l-0.1-0.5l0-0.6v-0.7
			h-0.1l-0.2,0.3l-0.2,0.3l-0.2,0.2l-0.2,0.2l-0.2,0.2l-0.2,0.2l-0.2,0.2l-0.3,0.1l-0.3,0.1l-0.3,0.1l-0.3,0.1l-0.3,0.1l-0.3,0.1
			l-0.3,0l-0.4,0l-0.4,0l-0.3,0l-0.3,0l-0.3,0l-0.3-0.1l-0.3-0.1l-0.3-0.1l-0.3-0.1l-0.3-0.1l-0.3-0.1l-0.3-0.2l-0.2-0.2l-0.2-0.2
			l-0.2-0.2l-0.2-0.2l-0.2-0.2l-0.2-0.3l-0.2-0.3l-0.1-0.3l-0.1-0.3l-0.1-0.3l-0.1-0.3l0-0.3l0-0.3v-0.3v-0.5l0.1-0.5l0.1-0.4
			l0.1-0.4l0.1-0.4l0.2-0.4l0.2-0.3L290,56l0.3-0.3l0.3-0.3l0.3-0.2l0.3-0.2l0.4-0.2l0.4-0.2l0.4-0.1l0.4-0.1l0.5-0.1l0.5-0.1
			l0.5-0.1l0.5-0.1l0.6-0.1l0.6,0l0.6,0h0.6h0.8v-0.6V53l0-0.3l-0.1-0.3l-0.1-0.3l-0.1-0.3l-0.1-0.3l-0.1-0.2l-0.2-0.2l-0.2-0.2
			l-0.2-0.2l-0.2-0.1l-0.3-0.1l-0.3-0.1l-0.3-0.1l-0.3,0h-0.4h-0.3l-0.3,0l-0.3,0l-0.3,0l-0.3,0.1l-0.3,0.1l-0.3,0.1l-0.3,0.1
			l-0.6,0.3l-0.5,0.3l-0.4,0.3L290.8,51.8L290.8,51.8z M298.1,56.8v-0.9h-0.3l-0.6,0l-0.6,0L296,56l-0.5,0.1l-0.5,0.1l-0.4,0.1
			l-0.4,0.1l-0.3,0.2l-0.2,0.1l-0.1,0.1l-0.1,0.1l-0.1,0.1l-0.1,0.1l-0.1,0.1l-0.1,0.1l-0.1,0.1l-0.1,0.1l-0.1,0.2l0,0.2l0,0.2
			l0,0.2l0,0.2l0,0.2v0.2v0.3l0,0.3l0,0.2l0.1,0.2l0.1,0.2l0.1,0.2l0.2,0.2l0.1,0.2l0.2,0.1l0.2,0.1l0.2,0.1l0.2,0.1l0.2,0.1l0.2,0
			l0.3,0h0.3l0.4,0l0.4,0l0.2,0l0.2,0l0.1-0.1l0.2-0.1l0.1-0.1l0.2-0.1l0.1-0.1l0.1-0.1l0.1-0.1l0.1-0.1l0.1-0.1l0.1-0.1l0.2-0.3
			l0.2-0.3l0.1-0.4l0.1-0.4l0.1-0.4l0.1-0.5l0-0.5V56.8L298.1,56.8z"/>
		<polygon class="st0" points="303.8,63.6 303.8,50.5 303.8,49.6 303.7,48.9 303.7,48.3 303.6,47.8 307.2,47.8 307.2,48.1 
			307.2,48.3 307.3,48.6 307.3,48.9 307.3,49.3 307.3,49.6 307.3,49.9 307.3,50.3 307.4,50.3 307.4,50.3 307.5,50 307.7,49.7 
			307.9,49.5 308.1,49.2 308.3,49 308.5,48.8 308.8,48.6 309,48.4 309.2,48.2 309.5,48 309.8,47.9 310.1,47.8 310.4,47.7 
			310.8,47.7 311.2,47.6 311.6,47.6 312,47.6 312.4,47.7 312.8,47.7 313.1,47.8 313.5,47.9 313.8,48 314.1,48.2 314.4,48.4 
			314.6,48.6 314.8,48.8 315.1,49 315.2,49.3 315.4,49.5 315.6,49.8 315.7,50.1 315.8,50.5 315.9,50.8 316,51.1 316.1,51.5 
			316.2,51.9 316.2,52.2 316.2,52.6 316.3,53 316.3,53.5 316.3,63.6 312.5,63.6 312.5,54.2 312.4,53.7 312.4,53.3 312.4,52.9 
			312.3,52.6 312.2,52.3 312.2,52 312.1,51.7 312,51.5 311.8,51.3 311.7,51.2 311.5,51.1 311.3,50.9 311.1,50.8 310.8,50.8 
			310.5,50.8 310.3,50.7 310,50.8 309.6,50.8 309.3,50.9 309.1,51 308.8,51.1 308.6,51.3 308.4,51.5 308.2,51.8 308.1,52 308,52.3 
			307.8,52.6 307.7,52.9 307.7,53.3 307.6,53.7 307.6,54 307.6,54.5 307.6,63.6 303.8,63.6 		"/>
		<polygon class="st0" points="319.7,47.8 319.7,44.6 323.5,43.4 323.5,47.8 326.7,47.8 326.7,50.6 323.5,50.6 323.5,58.8 
			323.5,59.1 323.6,59.4 323.6,59.6 323.6,59.9 323.7,60.1 323.8,60.3 323.9,60.4 324,60.5 324.1,60.6 324.2,60.7 324.3,60.8 
			324.5,60.9 324.7,60.9 324.9,61 325,61 325.3,61 325.5,61 325.7,61 325.9,61 326,60.9 326.2,60.9 326.4,60.8 326.6,60.7 
			326.7,60.7 326.7,63.4 326.4,63.5 326.1,63.6 325.8,63.7 325.5,63.8 325.2,63.8 324.9,63.9 324.5,63.9 324.2,63.9 323.6,63.9 
			323.1,63.8 322.7,63.7 322.2,63.6 322,63.5 321.8,63.5 321.6,63.4 321.5,63.3 321.3,63.2 321.1,63.1 321,62.9 320.8,62.8 
			320.7,62.7 320.6,62.5 320.5,62.4 320.3,62.2 320.3,62 320.2,61.8 320.1,61.6 320,61.4 319.9,61.1 319.9,60.9 319.8,60.7 
			319.8,60.4 319.8,59.9 319.7,59.3 319.7,50.6 317.2,50.6 317.2,47.8 319.7,47.8 		"/>
		<path class="st0" d="M339.2,59.9l0.2,3l-0.6,0.3l-0.6,0.2l-0.6,0.2l-0.6,0.1l-0.6,0.1l-0.6,0.1l-0.6,0l-0.6,0l-0.6,0l-0.6,0
			l-0.5-0.1l-0.5-0.1l-0.5-0.1l-0.5-0.2l-0.4-0.2l-0.4-0.3l-0.4-0.3l-0.4-0.3l-0.4-0.3l-0.3-0.3l-0.3-0.4l-0.3-0.4l-0.2-0.4
			l-0.2-0.4l-0.2-0.4l-0.1-0.5l-0.1-0.5l-0.1-0.5l-0.1-0.5l-0.1-0.5l0-0.5V56v-0.6l0-0.6l0.1-0.6l0.1-0.5l0.1-0.5l0.1-0.5l0.2-0.5
			l0.2-0.5l0.2-0.5l0.2-0.4l0.3-0.4l0.3-0.4l0.3-0.4l0.3-0.3L330,49l0.4-0.3l0.4-0.3l0.4-0.2l0.4-0.2l0.4-0.2l0.4-0.1l0.5-0.1
			l0.5-0.1h0.5h0.3l0.3,0l0.3,0l0.3,0.1l0.3,0l0.3,0.1l0.3,0.1l0.3,0.1l0.3,0.1l0.3,0.1l0.3,0.1l0.3,0.2l0.3,0.2l0.2,0.2l0.2,0.2
			l0.2,0.2l0.2,0.3l0.2,0.3l0.2,0.3l0.2,0.3l0.1,0.3l0.1,0.4l0.2,0.4l0.1,0.4l0.1,0.4l0.1,0.4l0.1,0.5l0.1,0.5l0.1,0.5l0,0.5l0,0.6
			V56v0.7H331v0.5l0,0.5l0.1,0.4l0.1,0.4l0.1,0.4l0.2,0.4l0.2,0.3l0.2,0.3l0.1,0.1l0.1,0.1l0.1,0.1l0.1,0.1l0.2,0.1l0.2,0.1l0.2,0.1
			l0.2,0.1l0.2,0.1l0.2,0.1l0.2,0l0.2,0l0.5,0.1h0.5h0.5l0.5,0l0.4,0l0.4-0.1l0.4-0.1l0.3-0.1l0.3-0.1l0.3-0.1l0.3-0.1l0.3-0.1
			l0.2-0.1L339.2,59.9L339.2,59.9z M331,54.4h5.4v-0.5l0-0.5l0-0.4l-0.1-0.4l-0.1-0.4l-0.1-0.3l-0.1-0.3l-0.2-0.3l-0.2-0.2l-0.2-0.2
			l-0.2-0.2l-0.2-0.1l-0.3-0.1l-0.3-0.1l-0.3,0l-0.3,0l-0.3,0l-0.3,0.1l-0.1,0l-0.1,0l-0.2,0.1l-0.1,0.1l-0.1,0.1l-0.1,0.1l-0.1,0.1
			l-0.1,0.1l-0.2,0.3l-0.2,0.3l-0.2,0.3l-0.1,0.3l-0.1,0.3l-0.1,0.4l-0.1,0.4l0,0.4l0,0.4V54.4L331,54.4z M331.9,46.1l2-4.4h3.6
			l-3.1,4.4H331.9L331.9,46.1z"/>
		<path class="st1" d="M14.2,35.3H19l0-0.6l0-0.6l0-0.6l0.1-0.6l0.1-0.6l0.1-0.6l0.1-0.6l0.1-0.6l0.1-0.6l0.1-0.5l0.1-0.5l0.2-0.5
			l0.2-0.5l0.2-0.5l0.2-0.5l0.2-0.5l0.2-0.5l0.2-0.5l0.3-0.5l0.3-0.5l0.3-0.5l0.3-0.5l0.3-0.5l0.3-0.5l0.3-0.4l0.3-0.4l0.3-0.4
			l0.3-0.4l0.3-0.4L25,20l0.4-0.4l0.4-0.4l-3.4-3.4l-0.4,0.5l-0.4,0.5L21,17.3l-0.4,0.5l-0.4,0.5l-0.4,0.5l-0.4,0.5L19,19.9
			l-0.4,0.6l-0.3,0.6l-0.3,0.6l-0.3,0.6l-0.3,0.6L17,23.4L16.7,24l-0.3,0.6l-0.3,0.6L16,25.9l-0.2,0.6l-0.2,0.6l-0.2,0.7l-0.2,0.6
			L15,29.1l-0.2,0.7l-0.1,0.7l-0.1,0.7l-0.1,0.7l-0.1,0.7l-0.1,0.7l-0.1,0.7l0,0.7L14.2,35.3L14.2,35.3z M43.2,47.4l-0.7,0.3
			l-0.4,0.1l-0.1,0.1l0.1,13.3l0.1,0.9l0.1,0.6l0.3,0.4l0.3,0.1L43,63l0.3-0.4l0.1-0.6v-0.9l0.4-14L43.2,47.4L43.2,47.4z M41.8,43
			l1.2-0.4l0.7-0.2l0.4-14.2l-1.5,0.4L41.5,29L41.8,43L41.8,43z M16.5,13.1l0.5-0.8l0.5-0.8l0.6-0.8l0.6-0.8l0.6-0.8l0.5-0.7L20.1,8
			l0.2-0.3l0.2-0.2l0.2-0.2l-0.5,0.1l-0.5,0.1l-0.5,0.2l-0.5,0.2l-0.5,0.2l-0.5,0.2l-0.5,0.3l-0.5,0.3l-0.4,0.3L16,9.5l-0.4,0.3
			l-0.4,0.3l-0.4,0.3l-0.4,0.4L14,11.2l-0.4,0.4l-0.4,0.4l-0.3,0.4l-0.3,0.4l-0.3,0.4L12,13.6l-0.3,0.4l-0.3,0.5L11.2,15L11,15.5
			L10.8,16l-0.2,0.5L10.4,17l-0.2,0.5L10,18l-0.1,0.5L9.8,19l0.5-0.4l0.5-0.4l0.5-0.4l0.5-0.4l1-0.7l1-0.7l0.4-0.4l0.4-0.3l0.4-0.3
			l0.4-0.3l0.4-0.4l0.3-0.4l0.3-0.4L16.5,13.1L16.5,13.1z M13.6,22.3l-0.2,0.3l-0.2,0.3L13,23.1l-0.3,0.3l-0.6,0.6l-0.7,0.6
			l-0.7,0.6l-0.8,0.7l-0.4,0.4l-0.4,0.4L8.7,27l-0.4,0.4l-0.2,0.3l-0.2,0.3l-0.2,0.3l-0.2,0.3L7.3,29l-0.2,0.4l-0.2,0.4l-0.2,0.4
			l-0.2,0.4L6.3,31l-0.1,0.4L6,31.8l-0.1,0.4l-0.1,0.4l-0.1,0.4l-0.1,0.4l-0.4-3.4L5,28.9l-0.2-1.4l-0.1-0.7l-0.1-0.7l-0.1-0.7
			l-0.1-0.7l0-0.7l0-0.7v-0.7l0-0.7l0.1-0.7l0.1-0.7l0.1-0.7l0.2-0.7l-0.5,0.9L3.8,21l-0.2,0.5l-0.2,0.4l-0.2,0.5l-0.2,0.5l-0.2,0.5
			l-0.2,0.5l-0.2,0.5l-0.1,0.5l-0.1,0.5l-0.1,0.5l0,0.5l0,0.5v0.4l0,0.4l0,0.4l0,0.4l0,0.3L2.2,29l0.1,0.3l0.1,0.3l0.2,0.7L2.8,31
			l0.3,0.6l0.3,0.6l0.6,1.2l0.6,1.2l0.3,0.6L5,35.9l0.3,0.6l0.2,0.7l0-0.2l0-0.2l0.1-0.3l0.1-0.2l0.2-0.5l0.2-0.5l0.3-0.6l0.3-0.6
			L7,33.6L7.3,33l0.4-0.6l0.4-0.5l0.4-0.5l0.4-0.5l0.4-0.4l0.3-0.4l0.3-0.4l0.3-0.3l0.4-0.5l0.4-0.5l0.3-0.4l0.3-0.4l0.2-0.4
			l0.2-0.4l0.2-0.4l0.2-0.4l0.3-0.7l0.3-0.8l0.3-1L13.6,22.3L13.6,22.3z M10.9,30.9l-0.6,0.7l-0.5,0.7L9.4,33l-0.5,0.7l-0.4,0.6
			L8.1,35l-0.4,0.7l-0.3,0.7l-0.1,0.3L7.1,37L7,37.3l-0.1,0.4l-0.1,0.4l-0.1,0.4l-0.1,0.4l-0.1,0.4l-0.1,0.4l0,0.4l0,0.4l0,0.4
			l0,0.4v0.5v0.5l0,0.5l-0.1-0.4L6.1,42L6,41.6l-0.1-0.4l-0.2-0.4l-0.2-0.4l-0.2-0.4l-0.2-0.4l-0.4-0.9l-0.4-0.9l-0.4-0.8L3.4,36
			l-0.4-0.8l-0.4-0.8l-0.4-0.8l-0.4-0.8l-0.2-0.4l-0.1-0.4l-0.1-0.4l-0.1-0.4l-0.1-0.4l-0.1-0.4l0-0.4l0-0.4l-0.2,0.8l-0.1,0.8
			L0.6,32l-0.1,0.7l0,0.7V34l0,0.6l0,0.6l0.1,0.6l0.1,0.5l0.1,0.5l0.2,0.5l0.2,0.5l0.2,0.5l0.2,0.5l0.2,0.4L2,39.7l0.3,0.4l0.3,0.4
			L2.8,41l0.6,0.8l0.7,0.9l0.7,0.9l0.8,0.9l0.8,1l0.9,1.1l0-0.4l0-0.4l0-0.4l0-0.4l0-0.4l0.1-0.4l0.1-0.4l0.1-0.4L8,42.4l0.3-0.9
			l0.4-0.9l0.4-1l0.4-1l0.4-1L10,37l0.2-0.5l0.2-0.5l0.1-0.6l0.1-0.5l0.1-0.6l0.1-0.6l0.1-0.6l0.1-0.6l0-0.6v-0.6L10.9,30.9
			L10.9,30.9z M11.7,55.8l-0.1-0.4l-0.1-0.4l-0.1-0.4L11.2,54l0-0.5l0-0.5l0-0.5V52l0-1l0.1-1.1l0.1-1.1l0.1-1.1l0.1-1.1l0.1-1.1
			l0-0.6v-0.6v-0.6l0-0.6l0-0.5l-0.1-0.6l-0.1-0.5L11.3,41l-0.1-0.5L11,40l-0.2-0.5L10.7,39l-0.5,1.6L9.7,42l-0.2,0.7l-0.2,0.8
			l-0.2,0.8L9,45.1l-0.1,0.8l-0.1,0.8l0,0.4v0.4v0.4l0,0.4l0,0.4l0,0.4L9,49.7l0.1,0.4l0.1,0.5l0.1,0.5l0.1,0.5l0.1,0.5l-0.2-0.3
			l-0.2-0.4l-0.3-0.5l-0.4-0.6l-0.5-0.7l-0.6-0.7l-0.6-0.8l-0.7-0.8l-0.9-1l-0.9-1l-0.9-1l-0.9-1l-0.8-1l-0.7-1l-0.3-0.5l-0.3-0.5
			l-0.3-0.4L0,39.5l0,1l0.1,1l0.2,0.9l0.2,0.9l0.2,0.8l0.3,0.8l0.3,0.8l0.4,0.7L2,47.1l0.4,0.7l0.5,0.6L3.4,49l0.5,0.5l0.5,0.5
			l0.5,0.5L5.4,51l0.5,0.4l0.5,0.4L7,52.3l0.5,0.4l1,0.7l0.9,0.6l0.8,0.5l0.7,0.5l0.3,0.2l0.2,0.2l0.2,0.2L11.7,55.8L11.7,55.8z
			 M6.3,28.5L6.5,28l0.2-0.6L7,26.9l0.3-0.5L7.6,26l0.3-0.4l0.4-0.4l0.4-0.4L9,24.3L9.4,24l0.4-0.4l0.4-0.3l0.9-0.7l0.9-0.7l0.9-0.7
			l0.9-0.7l0.4-0.4l0.4-0.4l0.4-0.4l0.4-0.4l0.4-0.4l0.3-0.4l0.3-0.5l0.3-0.5l0.3-0.5l0.3-0.6l0.2-0.6l0.2-0.6l-0.4,0.4l-0.4,0.4
			L16.3,16l-0.5,0.3l-1,0.6l-1,0.6l-1,0.6l-1,0.7l-0.5,0.3l-0.5,0.4L10.5,20L10,20.4l-0.4,0.4l-0.4,0.4l-0.3,0.4l-0.3,0.4l-0.3,0.4
			L8.1,23l-0.3,0.5L7.5,24l0.2-0.7L8,22.5l0.2-0.7L8.3,21l0.1-0.7l0.1-0.7L8.6,19l0.1-0.6l0.1-0.9l0.1-0.7l0.1-0.5L9,15.8l0.1-0.4
			l0.2-0.5l0.3-0.6l0.3-0.9l0.1-0.2l0.2-0.3l0.2-0.3l0.1-0.2l-0.5,0.4L9.6,13l-0.4,0.4l-0.4,0.4l-0.4,0.4L8,14.7l-0.3,0.5l-0.3,0.5
			l-0.3,0.5l-0.2,0.5l-0.2,0.5l-0.2,0.6l-0.2,0.6l-0.1,0.6l-0.1,0.6L6,20.2l-0.1,0.5l0,0.5l0,0.5l0,0.5v1l0,1l0.1,1l0.1,1l0.1,1.1
			L6.3,28.5L6.3,28.5z M18.2,62.9L18,62.5l-0.2-0.4l-0.2-0.4l-0.2-0.4l-0.2-0.4L17,60.4L16.9,60l-0.1-0.5l-0.2-1l-0.2-1l-0.2-1
			l-0.2-1l-0.2-1l-0.2-1l-0.1-0.5l-0.1-0.5l-0.1-0.5l-0.2-0.5l-0.2-0.5l-0.2-0.5l-0.2-0.5L14,49.4L13.8,49l-0.3-0.4l-0.3-0.4
			l-0.4-0.4l0,0.9l0,0.9l0,0.8l0,0.8v0.8l0,0.8v0.7l0,0.7l0,0.7l0.1,0.7l0.1,0.3l0.1,0.3l0.1,0.3l0.1,0.3l0.1,0.3l0.1,0.3l0.1,0.3
			l0.1,0.3l0.2,0.3l0.2,0.3l0.2,0.3l0.2,0.3L14.2,59l-0.5-0.4l-0.6-0.4l-0.6-0.5l-0.3-0.2l-0.4-0.2L11.5,57l-0.4-0.2l-0.4-0.2
			l-0.4-0.2l-0.5-0.2l-0.5-0.2l-0.6-0.3l-0.6-0.3L7.5,55L7,54.7l-0.5-0.4l-0.5-0.4l-0.5-0.4l-0.4-0.4l-0.8-0.8l-0.8-0.8l-0.7-0.8
			l-0.7-0.7l0.2,0.6l0.3,1.1l0.4,1l0.4,0.9l0.4,0.9l0.5,0.8l0.5,0.7l0.5,0.7l0.5,0.6l0.6,0.6L7,58.2l0.6,0.5l0.6,0.4l0.6,0.4
			l0.6,0.3l0.6,0.3l0.6,0.3l0.6,0.3l0.6,0.2l0.6,0.2l0.6,0.2l1.1,0.3l1,0.3l0.5,0.1l0.5,0.1l0.4,0.1l0.4,0.1l0.3,0.1l0.3,0.1
			l0.3,0.2L18.2,62.9L18.2,62.9z M26,68.2L25.9,68l-0.1-0.3l-0.2-0.3l-0.1-0.3l-0.3-0.7l-0.3-0.7l-0.3-0.8L24.1,64l-0.4-0.9
			l-0.4-0.9L23,61.7l-0.3-0.5l-0.3-0.5l-0.3-0.5L22,59.8l-0.3-0.5l-0.3-0.4L21,58.5l-0.4-0.4l-0.4-0.4l-0.4-0.4l-0.4-0.4L19,56.5
			l-0.5-0.3l-0.5-0.3l-0.5-0.3l0.5,1.7l0.4,1.5l0.2,0.7l0.2,0.7l0.2,0.7l0.2,0.7l0.3,0.6l0.3,0.6l0.2,0.3l0.2,0.3l0.2,0.3l0.2,0.3
			l0.2,0.3l0.2,0.3l0.2,0.3l0.2,0.3l0.3,0.3l0.3,0.3l0.3,0.3l0.3,0.3l-0.6-0.2l-0.7-0.3l-0.8-0.3l-0.9-0.3l-0.5-0.2l-0.5-0.2
			l-0.5-0.1l-0.5-0.1l-0.5-0.1L16.6,64L16,63.9l-0.6-0.1l-0.9-0.1l-0.8-0.1l-0.7-0.2l-0.7-0.2l-0.6-0.2l-0.6-0.2l-0.5-0.2l-0.5-0.2
			L9.8,62l-0.4-0.2l-0.4-0.3l-0.4-0.3L8,60.8l-0.8-0.5l0.6,1l0.6,0.9L8.9,63l0.6,0.7l0.6,0.7l0.7,0.6l0.7,0.5l0.7,0.4l0.7,0.4
			l0.7,0.3l0.7,0.3l0.7,0.3l0.7,0.2l0.7,0.2l0.7,0.1l0.7,0.1l0.7,0.1l0.7,0l0.7,0h0.6l1.2,0l1.1,0h0.5l0.5,0l0.5,0h0.4l0.4,0
			l0.4,0.1l0.3,0.1L26,68.2L26,68.2z M69.2,13.1l-0.5-0.8l-0.5-0.8l-0.6-0.8l-0.6-0.8l-0.6-0.8l-0.6-0.7L65.7,8l-0.3-0.3l-0.2-0.2
			L65,7.3l0.5,0.1L66,7.6l0.5,0.2l0.5,0.2l0.5,0.2L68,8.4l0.5,0.3l0.5,0.3l0.4,0.3l0.4,0.3l0.4,0.3l0.4,0.3l0.4,0.3l0.4,0.4l0.4,0.4
			l0.4,0.4l0.4,0.4l0.3,0.4l0.3,0.4l0.3,0.4l0.3,0.4l0.3,0.4l0.3,0.5l0.3,0.5l0.2,0.5L75,16l0.2,0.5l0.2,0.5l0.2,0.5l0.1,0.5
			l0.1,0.5L76,19l-0.4-0.4l-0.5-0.4l-0.5-0.4l-0.5-0.4l-1-0.7l-1-0.7l-0.4-0.4l-0.4-0.3l-0.4-0.3l-0.4-0.3l-0.4-0.4l-0.3-0.4
			l-0.3-0.4L69.2,13.1L69.2,13.1z M72.2,22.3l0.2,0.3l0.2,0.3l0.2,0.3l0.3,0.3l0.6,0.6l0.7,0.6l0.7,0.6l0.8,0.7l0.4,0.4l0.4,0.4
			l0.4,0.4l0.4,0.4l0.2,0.3l0.2,0.3l0.2,0.3l0.2,0.3l0.2,0.4l0.2,0.4l0.2,0.4l0.2,0.4l0.2,0.4l0.2,0.4l0.2,0.4l0.1,0.4l0.3,0.8
			l0.2,0.8l0.4-3.4l0.2-1.3l0.2-1.4l0.1-0.7l0.1-0.7l0.1-0.7l0.1-0.7l0-0.7l0-0.7v-0.7l0-0.7l-0.1-0.7l-0.1-0.7l-0.1-0.7L81,19.2
			l0.5,0.9L82,21l0.3,0.5l0.2,0.4l0.2,0.5l0.2,0.5l0.2,0.5l0.2,0.5l0.1,0.5l0.1,0.5l0.1,0.5l0.1,0.5l0.1,0.5v0.5v0.4l0,0.4l0,0.4
			l0,0.4L83.5,29l-0.2,0.7l-0.2,0.7L83,31l-0.2,0.6l-0.3,0.6l-0.6,1.2l-0.6,1.2l-0.3,0.6l-0.3,0.6l-0.3,0.6l-0.2,0.7l0-0.2l0-0.2
			l-0.1-0.3l-0.1-0.2l-0.2-0.5l-0.2-0.5l-0.3-0.6l-0.3-0.6l-0.3-0.6L78.4,33l-0.4-0.6l-0.4-0.5l-0.4-0.5L77,30.9l-0.3-0.4l-0.3-0.4
			L76,29.7l-0.3-0.3l-0.4-0.5L75,28.4L74.6,28l-0.3-0.4l-0.2-0.4l-0.2-0.4l-0.2-0.4l-0.2-0.4l-0.3-0.7L73,24.5l-0.4-1L72.2,22.3
			L72.2,22.3z M74.9,30.9l0.5,0.7l0.5,0.7l0.5,0.7l0.5,0.7l0.4,0.6l0.4,0.7l0.4,0.7l0.3,0.7l0.2,0.3l0.1,0.4l0.1,0.3l0.1,0.4
			l0.1,0.4l0.1,0.4l0.1,0.4l0.1,0.4l0.1,0.4l0.1,0.4l0,0.4l0,0.4v0.4l0,0.5l0,0.5l0,0.5l0.1-0.4l0.1-0.4l0.1-0.4l0.1-0.4l0.1-0.4
			l0.2-0.4l0.2-0.4l0.2-0.4l0.4-0.9l0.4-0.9l0.5-0.8l0.4-0.9l0.4-0.8l0.4-0.8l0.4-0.8l0.4-0.8l0.2-0.4l0.1-0.4l0.1-0.4l0.1-0.4
			l0.1-0.4l0.1-0.4l0-0.4l0-0.4l0.1,0.8l0.1,0.8l0.1,0.8l0.1,0.7l0,0.7V34v0.6l0,0.6l-0.1,0.6l-0.1,0.5L85,36.9l-0.1,0.5l-0.1,0.5
			l-0.2,0.5l-0.2,0.5l-0.2,0.4l-0.3,0.4l-0.3,0.4l-0.3,0.4L83,41l-0.6,0.8l-0.7,0.9l-0.7,0.9l-0.8,0.9l-0.8,1l-0.8,1.1l0-0.4v-0.4
			v-0.4l0-0.4l-0.1-0.4l-0.1-0.4l-0.1-0.4l-0.1-0.4l-0.3-0.9l-0.3-0.9l-0.4-0.9l-0.4-1l-0.4-1l-0.4-1L75.8,37l-0.2-0.5L75.5,36
			l-0.1-0.6l-0.1-0.5l-0.1-0.6L75,33.8l-0.1-0.6l-0.1-0.6l0-0.6v-0.6L74.9,30.9L74.9,30.9z M74.1,55.8l0.1-0.4l0.1-0.4l0.1-0.4
			l0.1-0.5l0-0.5l0-0.5v-0.5V52l0-1l-0.1-1.1l-0.1-1.1l-0.1-1.1l-0.1-1.1l-0.1-1.1l0-0.6v-0.6l0-0.6l0-0.6l0-0.5l0.1-0.6l0.1-0.5
			l0.1-0.6l0.1-0.5l0.1-0.5l0.2-0.5l0.2-0.5l0.5,1.6L76,42l0.2,0.7l0.2,0.8l0.2,0.8l0.1,0.8l0.1,0.8l0.1,0.8v0.4l0,0.4v0.4l0,0.4
			l0,0.4l0,0.4l-0.1,0.5l-0.1,0.4l-0.1,0.5l-0.1,0.5l-0.1,0.5l-0.1,0.5l0.2-0.3l0.3-0.4l0.3-0.5l0.4-0.6l0.5-0.7l0.6-0.7l0.6-0.8
			l0.7-0.8l0.9-1l0.9-1l0.9-1l0.8-1l0.8-1l0.7-1l0.3-0.5l0.3-0.5l0.3-0.4l0.2-0.4v1l-0.1,1l-0.1,0.9l-0.2,0.9l-0.2,0.8l-0.3,0.8
			l-0.3,0.8l-0.4,0.7l-0.4,0.7l-0.4,0.7l-0.4,0.6L82.4,49L82,49.5l-0.5,0.5l-0.5,0.5L80.4,51l-0.5,0.4l-0.5,0.4l-0.5,0.4l-0.5,0.4
			l-1,0.7l-0.9,0.6l-0.8,0.5l-0.7,0.5l-0.3,0.2l-0.2,0.2l-0.2,0.2L74.1,55.8L74.1,55.8z M67.6,62.9l0.2-0.4l0.2-0.4l0.2-0.4l0.2-0.4
			l0.1-0.4l0.2-0.4l0.1-0.5l0.1-0.5l0.2-1l0.2-1l0.2-1l0.2-1l0.2-1l0.2-1l0.1-0.5l0.1-0.5l0.2-0.5l0.2-0.5l0.2-0.5l0.2-0.5l0.2-0.5
			l0.3-0.5L72,49l0.3-0.4l0.3-0.4l0.4-0.4l0,0.9v0.9v0.8l0,0.8l0,0.8v0.8v0.7l0,0.7l0,0.7l-0.1,0.7l-0.1,0.3l-0.1,0.3l-0.1,0.3
			l-0.1,0.3l-0.1,0.3l-0.1,0.3l-0.1,0.3L72,58.1l-0.2,0.3l-0.2,0.3L71.4,59l-0.3,0.3l0.4-0.4l0.5-0.4l0.5-0.4l0.6-0.5l0.3-0.2
			l0.4-0.2l0.4-0.2l0.4-0.2l0.4-0.2l0.5-0.2l0.5-0.2l0.5-0.2l0.6-0.3l0.6-0.3l0.5-0.3l0.5-0.4l0.5-0.4l0.5-0.4l0.4-0.4l0.4-0.4
			l0.9-0.8l0.8-0.8l0.7-0.8l0.7-0.7l-0.2,0.6l-0.3,1.1l-0.4,1l-0.4,0.9L82,54.4l-0.4,0.8L81,55.9l-0.5,0.7l-0.6,0.6l-0.6,0.6
			l-0.6,0.5l-0.6,0.5l-0.6,0.4L77,59.5l-0.6,0.3l-0.6,0.3l-0.6,0.3l-0.6,0.3l-0.6,0.2L73.3,61l-0.6,0.2l-1.1,0.3l-1.1,0.3L70,61.9
			L69.5,62l-0.4,0.1l-0.4,0.1l-0.4,0.1L68,62.6l-0.3,0.2L67.6,62.9L67.6,62.9z M59.8,68.2l0.2-0.2l0.1-0.3l0.2-0.3l0.1-0.3l0.3-0.7
			l0.3-0.7l0.3-0.8l0.4-0.9l0.4-0.9l0.4-0.9l0.2-0.5l0.2-0.5l0.3-0.5l0.3-0.5l0.3-0.4l0.3-0.5l0.3-0.4l0.3-0.4l0.3-0.4l0.4-0.4
			l0.4-0.4l0.4-0.4l0.4-0.4l0.4-0.3l0.5-0.3l0.5-0.3l-0.5,1.7l-0.4,1.5l-0.2,0.7l-0.2,0.7l-0.2,0.7l-0.3,0.7l-0.3,0.6l-0.3,0.6
			l-0.2,0.3l-0.2,0.3l-0.2,0.3l-0.2,0.3l-0.2,0.3l-0.2,0.3l-0.2,0.3L64.2,65l-0.3,0.3l-0.3,0.3l-0.3,0.3L63,66.1l0.6-0.2l0.7-0.3
			l0.8-0.3l0.9-0.3l0.5-0.2l0.5-0.2l0.5-0.1l0.5-0.1l0.6-0.1l0.5-0.1l0.6-0.1l0.6-0.1l0.9-0.1l0.8-0.1l0.7-0.2l0.7-0.2l0.6-0.2
			l0.6-0.2l0.5-0.2l0.4-0.2l0.4-0.3l0.4-0.2l0.4-0.3l0.4-0.3l0.7-0.5l0.8-0.5l-0.6,1l-0.6,0.9L76.9,63l-0.6,0.7l-0.6,0.7L75,65
			l-0.7,0.5L73.6,66l-0.7,0.4l-0.7,0.3L71.6,67l-0.7,0.3l-0.7,0.2l-0.7,0.2l-0.7,0.1l-0.7,0.1l-0.7,0.1l-0.7,0l-0.7,0h-0.6l-1.2,0
			l-1.1,0h-0.5l-0.5,0l-0.5,0h-0.4l-0.4,0L60.4,68l-0.3,0.1L59.8,68.2L59.8,68.2z M79.6,28.5L79.4,28l-0.2-0.6l-0.3-0.5l-0.3-0.5
			L78.3,26L78,25.5l-0.4-0.4l-0.4-0.4l-0.4-0.4L76.4,24L76,23.6l-0.4-0.3l-0.9-0.7l-0.9-0.7L73,21.2l-0.9-0.7l-0.4-0.4l-0.4-0.4
			l-0.4-0.4L70.5,19l-0.4-0.4l-0.3-0.4l-0.3-0.5l-0.3-0.5l-0.3-0.5L68.7,16l-0.2-0.6l-0.2-0.6l0.4,0.4l0.4,0.4l0.4,0.4l0.5,0.3
			l1,0.6l1,0.6l1,0.6l1,0.7l0.5,0.3l0.5,0.4l0.4,0.4l0.5,0.4l0.4,0.4l0.4,0.4l0.3,0.4l0.3,0.4l0.3,0.4l0.3,0.5l0.3,0.5l0.2,0.5
			l-0.2-0.7l-0.2-0.7l-0.2-0.7L77.6,21l-0.1-0.7l-0.1-0.7L77.3,19l0-0.6l-0.1-0.9L77,16.7L77,16.2l-0.1-0.4l-0.1-0.4l-0.2-0.5
			l-0.3-0.6L76,13.3l-0.1-0.2l-0.2-0.3l-0.2-0.3l-0.1-0.2l0.5,0.4l0.5,0.4l0.4,0.4l0.4,0.4l0.4,0.4l0.4,0.4l0.3,0.5l0.3,0.5l0.3,0.5
			l0.2,0.5l0.2,0.5l0.2,0.6l0.2,0.6l0.1,0.6l0.1,0.6l0.1,0.6l0.1,0.5l0,0.5l0,0.5l0,0.5v1l0,1l-0.1,1l-0.1,1l-0.1,1.1L79.6,28.5
			L79.6,28.5z M14.9,69.1l0.5,0.3l0.6,0.2l0.6,0.2l0.6,0.1l0.7,0.1l0.7,0l0.7,0l0.8-0.1l0.8-0.1l0.8-0.1l0.8-0.1l0.9-0.2l1.8-0.4
			l1.8-0.4l0.9-0.2l1-0.2l1-0.2l1-0.2l1-0.2l1-0.1l1-0.1l1-0.1l1,0l1,0l1,0.1l1,0.1l1,0.2l1,0.2l1,0.3l1,0.4l1.3-0.4l1.2-0.3
			l1.2-0.2l1.1-0.2l1.1-0.1l1.1-0.1l1,0l1,0l1,0.1l0.9,0.1l0.9,0.1l0.9,0.1l0.8,0.2l0.8,0.2l0.8,0.2l0.8,0.2l1.5,0.4l1.5,0.4
			l0.7,0.1l0.7,0.1l0.7,0.1l0.7,0.1l0.7,0l0.8,0l0.8,0l0.8-0.1l0.8-0.1l0.8-0.2l0.8-0.2l0.9-0.3l-0.8,0.7l-0.8,0.6L68.7,71l-0.8,0.4
			L67,71.8l-0.9,0.3l-0.9,0.3l-0.9,0.2l-0.9,0.1l-0.9,0.1l-0.9,0h-0.9l-0.9-0.1l-0.9-0.1L58,72.5l-0.9-0.1l-0.9-0.1L55.3,72
			l-0.9-0.2l-0.9-0.2l-1.7-0.4l-1.6-0.4l-0.8-0.2l-0.7-0.2l-0.7-0.2L47.4,70l-0.6-0.1l-0.6-0.1l-0.6,0l-0.5,0l0.6,0.3l0.6,0.3
			l0.6,0.3l0.6,0.3l0.5,0.3l0.5,0.3l0.5,0.3l0.5,0.4l0.4,0.4l0.4,0.4l0.4,0.4l0.4,0.4l0.4,0.4l0.4,0.4L52,75l0.3,0.4l-0.5,0.1
			l-0.5,0l-0.5,0.1l-0.5,0.1l-0.3-0.4l-0.3-0.4l-0.3-0.4l-0.3-0.4l-0.4-0.4l-0.4-0.4L47.9,73l-0.5-0.4L47,72.3l-0.5-0.4L46,71.6
			l-0.6-0.3l-0.6-0.3l-0.6-0.3l-0.6-0.3L42.9,70l-0.6,0.2l-0.6,0.2l-0.5,0.2l-0.5,0.2l-0.5,0.3l-0.5,0.3l-0.5,0.3L38.8,72l-0.5,0.4
			l-0.5,0.4l-0.4,0.4l-0.4,0.4l-0.4,0.5l-0.4,0.5l-0.4,0.5l-0.4,0.6l-0.5-0.1l-0.5-0.1l-0.5,0l-0.5-0.1l0.7-0.8l0.7-0.8l0.4-0.4
			l0.4-0.4l0.4-0.4l0.4-0.4l0.4-0.4l0.5-0.3l0.5-0.4l0.5-0.3l0.5-0.3l0.6-0.3l0.6-0.3l0.6-0.3l-0.4,0h-0.5l-0.5,0.1l-0.6,0.1
			L38.1,70l-0.7,0.1l-0.7,0.2L36,70.5l-1.5,0.4l-1.6,0.4L32,71.6l-0.9,0.2L30.2,72l-0.9,0.2l-0.9,0.2l-0.9,0.1l-0.9,0.1l-1,0.1
			l-0.9,0l-1,0l-0.9-0.1l-0.9-0.1l-0.9-0.2L20,72l-0.9-0.3l-0.9-0.4l-0.9-0.4l-0.9-0.5l-0.8-0.6L14.9,69.1L14.9,69.1z M44.6,50.6
			v0.5v0.4V52l0,0.5l0.5,0.3l0.5,0.3l0.3,0.2l0.3,0.2l0.2,0.2l0.2,0.2l0.2,0.2l0.2,0.3l0.2,0.3l0.2,0.3l0.2,0.3l0.2,0.4L48,56
			l0.1,0.4l0-0.6l0-0.5l0-0.5L48,54.3l-0.1-0.4l-0.2-0.4l-0.2-0.4l-0.2-0.4l-0.2-0.3l-0.3-0.3l-0.3-0.3l-0.3-0.3l-0.4-0.3L45.5,51
			l-0.4-0.2L44.6,50.6L44.6,50.6z M45,35.9l0,0.4l0,0.4v0.4l0,0.4V38l0,0.4v0.4l0,0.4l0.4,0.1l0.4,0.2l0.2,0.1l0.1,0.1l0.1,0.1
			l0.1,0.1l0.1,0.1l0.1,0.1l0.1,0.2l0.1,0.2l0,0.2l0,0.2v0.2l0,0.2l0,0.3l-0.1,0.3L46.5,42l-0.2,0.2l-0.2,0.2l-0.2,0.2l-0.3,0.1
			l-0.3,0.1L45,43l-0.3,0.1l-0.4,0.1L44,43.4l-0.8,0.2l-0.8,0.2L42,44l-0.4,0.1l-0.4,0.1l-0.4,0.1l-0.4,0.2l-0.3,0.2L39.9,45
			l-0.3,0.2l-0.3,0.3l-0.2,0.3L38.8,46l-0.2,0.3l-0.1,0.3L38.5,47l0,0.4v0.4l0,0.3l0.1,0.3l0.1,0.3l0.1,0.2l0.1,0.2l0.2,0.2l0.2,0.2
			l0.2,0.2l0.8,0.6l0.8,0.6l0-0.7l0-0.7l0-0.7l0-0.7v-0.1l0-0.1l0-0.1l0-0.1l0.1-0.2l0.2-0.2l0.2-0.1l0.2-0.1l0.3-0.1l0.3-0.1
			l0.6-0.3l0.7-0.2l0.7-0.2l0.7-0.2l0.6-0.2l0.5-0.2l0.5-0.2L47,45l0.5-0.2l0.4-0.3l0.4-0.3l0.4-0.3l0.2-0.1l0.1-0.2l0.2-0.2
			l0.1-0.2l0.1-0.2l0.1-0.2l0.1-0.2l0.1-0.2l0.1-0.2L50,42l0-0.2l0-0.3l0-0.3l0-0.3l0-0.3l0-0.3l0-0.2l0-0.2l0-0.2l0-0.2l-0.1-0.2
			l-0.1-0.2l-0.1-0.2l-0.1-0.2l-0.2-0.3l-0.3-0.3L48.8,38l-0.3-0.3l-0.3-0.3l-0.4-0.2L47.4,37l-0.4-0.2l-0.4-0.2L46,36.3l-0.5-0.2
			L45,35.9L45,35.9z M45.5,10.5L45.5,12h0v0.3l-0.1,1.5L46,14l0.6,0.2l0.6,0.2l0.5,0.2l0.5,0.2l0.4,0.3l0.4,0.3l0.4,0.3l0.1,0.1
			l0.1,0.2l0.1,0.1l0.1,0.1l0.1,0.2l0.1,0.2l0.1,0.2l0.1,0.2l0.1,0.2l0.1,0.2l0,0.2l0,0.2l0,0.2l0,0.2l0,0.2v0.2l0,0.3l0,0.3l0,0.3
			l0,0.2L50,19.2L49.4,19l-0.6-0.2l-0.6-0.2l-0.7-0.2l-0.7-0.2L46.1,18l-0.7-0.1v1l0.6,0.1l0.6,0.1l0.6,0.1l0.6,0.2l0.6,0.2l0.6,0.2
			l0.6,0.2l0.6,0.3L50,20.8l-0.3,0.3l-0.3,0.3l-0.3,0.3l-0.4,0.3l-0.4,0.2l-0.4,0.2l-0.4,0.2L47,22.7l-0.5,0.2l-0.5,0.2l-0.6,0.1
			l-1.2,0.3l-1.3,0.3L42.1,24l-0.7,0.2l-0.8,0.2l-0.8,0.2l-0.4,0.1l-0.4,0.1L38.7,25l-0.4,0.2L38,25.4l-0.4,0.2l-0.3,0.2L36.9,26
			l-0.3,0.2l-0.3,0.2L36,26.7L35.7,27l-0.3,0.3l-0.3,0.3L35,27.9l-0.2,0.3l-0.2,0.3l-0.2,0.4l-0.1,0.4l-0.1,0.4l-0.1,0.4l0,0.4
			l0,0.4l0,0.5l0,0.4l0.1,0.4l0.1,0.4l0.1,0.3l0.1,0.3l0.1,0.3l0.2,0.3l0.1,0.3l0.2,0.3l0.2,0.3l0.2,0.3l0.2,0.2l0.2,0.2l0.2,0.2
			l0.2,0.2l0.3,0.2l0.3,0.2l0.3,0.2l0.3,0.1l0.3,0.2l0.5,0.3l0.5,0.2l0.5,0.2l0.5,0.2l0.5,0.1l0.4,0.1v-0.4l0-0.4l0-0.4v-0.4l0-0.4
			l0-0.4v-0.4l0-0.4l-0.5-0.3l-0.4-0.3l-0.2-0.1l-0.2-0.2L39,33.4l-0.2-0.2L38.7,33l-0.1-0.2l-0.1-0.2l-0.1-0.3l-0.1-0.3l0-0.3
			l0-0.3v-0.4l0-0.3l0-0.3l0.1-0.2l0.1-0.2l0.1-0.2l0.1-0.2l0.2-0.2l0.2-0.2l0.2-0.2l0.3-0.2l0.3-0.1l0.3-0.1l0.6-0.3l0.7-0.3
			l0.7-0.2l0.7-0.2l0.7-0.2l0.8-0.2l1.6-0.4l1.6-0.4l0.6-0.2l0.6-0.2l0.6-0.2l0.5-0.2l0.5-0.2l0.4-0.2l0.4-0.2l0.4-0.2l0.4-0.2
			l0.3-0.2l0.3-0.2l0.3-0.2l0.3-0.3l0.2-0.3l0.2-0.3l0.2-0.3l0.2,0.2l0.2,0.1l0.2,0.2l0.2,0.2l0,0l0,0h0l0.1,0.2L51.2,27l-0.2-0.2
			l-0.2-0.2l-0.2-0.2l-0.3-0.2l-1.1,0.4l0.4,0.3l0.3,0.3l0.3,0.3l0.3,0.3L49.2,29l-0.1-0.1l-1.5,0.2l-0.3,0.4H47l0.9-0.9l-0.2-0.1
			l-0.9,1.1H47V30l0.2,0.1l0.1,0.4h-0.5h-0.5l-1.3-0.6L45,34.9l1.1,0.4l1.1,0.5l1,0.5l0.9,0.7l0.9,0.7l0.6,1l0.4,1.1l0.1,0.6v0.6
			l-0.1,1.2l-0.4,1l-0.7,1L49,45.1l-0.1,0.1l-0.4,0.3l-0.3,0.2l-0.3,0.1L47.5,46l-0.3,0.2l-0.3,0.1l-1.7,0.5l-0.2,0l-0.2,0v0l-0.1,0
			l-0.1,2.7l0.9,0.4l0.9,0.5l0.7,0.6l0.7,0.7l0.2,0.4l0.4,0.8l0.4,0.9l0.3,1.2v1.5v0.7l-0.3,0.4l-0.3,0.3l0,0l0,0L48.1,58l-0.5,0.1
			l-0.5,0.1l-0.5,0.1L46,58.4l-0.5,0.1L45,58.6l-0.6,0l0,1l0.5,0l0.6,0l0.5-0.1l0.6-0.1l0.5-0.1l0.5-0.1l0.5-0.1l0.5-0.1l0.5-0.1
			l0.5-0.1l0.5-0.2l0.5-0.2l0.5-0.2l0.5-0.2l0.5-0.2l0.5-0.2l0.5-0.2l0.5-0.2l0.5-0.2l0.5-0.3l0.4-0.3l0.4-0.3l0.4-0.3l0.4-0.3
			l0.4-0.3l0.4-0.3l0.4-0.3l0.4-0.3l0.4-0.3l0.4-0.3l0.4-0.3l0.4-0.4l3.4,3.4l-0.5,0.5l-0.5,0.4l-0.5,0.4l-0.5,0.4l-0.5,0.4L59.8,59
			l-0.6,0.4l-0.6,0.4l-0.6,0.4l-0.6,0.4l-0.6,0.3l-0.6,0.3l-0.6,0.3l-0.6,0.3L54.5,62l-0.6,0.3l-0.6,0.3l-0.7,0.2L51.9,63l-0.7,0.2
			l-0.7,0.2l-0.7,0.2l-0.7,0.1l-0.7,0.1L47.9,64l-0.7,0.1l-0.7,0.1l-0.7,0.1l-0.7,0.1l-0.7,0l-0.7,0h-0.7h-0.7l-0.7,0l-0.7,0
			l-0.7-0.1l-0.7-0.1l-0.7-0.1L38,64.1l-0.7-0.1l-0.7-0.1l-0.7-0.2l-0.7-0.2l-0.7-0.2L34,63l-0.6-0.2l-0.7-0.2L32,62.3l-0.6-0.3
			l-0.6-0.3l-0.6-0.3l-0.6-0.3L29,60.9l-0.6-0.3l-0.6-0.3l-0.6-0.4l-0.6-0.4l-0.6-0.4l-0.5-0.4l-0.5-0.4l-0.5-0.4L24,57.4L23.6,57
			l-0.5-0.5l3.4-3.4l0.7,0.7l0.7,0.6l0.8,0.6l0.8,0.6l0.8,0.5l0.8,0.5L32,57l0.9,0.4l0.9,0.4l0.9,0.4l0.5,0.2l0.5,0.1l0.5,0.1
			l0.5,0.1l0.5,0.1l0.5,0.1l0.5,0.1l0.5,0.1l0.5,0.1l0.5,0.1l0.5,0.1l0.5,0v-1l-1-0.1l-1-0.1l-1-0.2l-0.9-0.2L36,57.6l-0.9-0.3
			l-0.9-0.3l-0.9-0.4l-0.9-0.4l-0.8-0.4l-0.8-0.5l-0.8-0.5l-0.8-0.6l-0.7-0.6L27.9,53l-0.7-0.6l0.9-0.9l0.1,0l1.3,0.1l0.6-0.7
			l1.7,0.1l0.2-0.6v-0.2l0.1,0l0,0l0,0l0.5,0.3l0.5,0.3l0.5,0.3l0.5,0.3l0.5,0.3L35,52l0.5,0.3l0.6,0.2l0.6,0.2l0.6,0.2l0.6,0.2
			l0.6,0.1l0.6,0.1l0.6,0.1l0.6,0.1l0.6,0.1v-1l-0.7-0.1l-0.7-0.1l-0.6-0.1l-0.7-0.2l-0.6-0.2l-0.6-0.2l-0.6-0.3l-0.6-0.3L35,50.9
			l-0.6-0.3l-0.6-0.3l-0.6-0.4l-0.5-0.4l-0.5-0.4l-0.5-0.4l-0.5-0.4l3.5-3.5l0.3,0.3l0.3,0.3l0.3,0.3l0.3,0.2l0.3,0.2l0.4,0.2
			l0.4,0.2l0.4,0.2v0l0.1-0.5l0.2-0.3l-0.3-0.2l-0.3-0.2l-0.3-0.2L36.6,45l-0.3-0.2L36,44.6l-0.3-0.2l-0.3-0.2l3.5-3.5l0.2,0.1
			l0.2,0.1l0.2,0.1l0.2,0.1l0.2,0.1l0.2,0.1l0.3,0.1l0.2,0.1l0-1l-0.3-0.1l-0.3-0.1l-0.3-0.2L39.6,40l1-1l-1.1-0.4l-0.7,0.7L38.6,39
			l-0.2-0.3l-0.2-0.3L38.1,38l-0.7-0.3l-0.1,0l-0.1,0l-0.9-0.5l-0.7-0.5l-0.6-0.6l-0.6-0.6L34,34.7L33.6,34l-0.3-0.9l-0.2-0.7v-1
			l0.1-1.1l0.2-1l0.1-0.3l0.6-1.3l0.2-0.4l-0.1,0.1l0.1-0.1l0.4-0.5l-3.4-3.4l0.5-0.4l0.5-0.4l0.5-0.4l0.5-0.4l0.5-0.3l0.6-0.3
			l0.5-0.3l0.6-0.3l0.6-0.3l0.6-0.2l0.6-0.2l0.6-0.2l0.6-0.2l0.6-0.2l0.6-0.1l0.6-0.1v-1l-0.7,0.1l-0.7,0.1l-0.7,0.2l-0.7,0.2
			l-0.7,0.2L36.3,19l-0.6,0.3L35,19.6l-0.6,0.3l-0.6,0.3l-0.6,0.4l-0.6,0.4l-0.6,0.4l-0.5,0.4l-0.5,0.4l-0.5,0.4l-0.5-0.5l-0.5,0.9
			l0.3,0.3L29.3,24l-0.5,0.6l-0.5,0.7l-0.4,0.7l-0.4,0.7L27,27.3L26.6,28l-0.3,0.7L26,29.5l-0.3,0.8l-0.2,0.8l-0.2,0.8l-0.1,0.8
			L25,33.6l-0.1,0.9l0,0.9H20l0-0.6l0-0.6l0-0.5l0-0.6l0.1-0.6l0.1-0.5l0.1-0.5l0.1-0.5l0.1-0.5l0.1-0.5l0.1-0.5l0.1-0.5l0.2-0.5
			l0.2-0.5l0.2-0.5l0.2-0.5l0.2-0.5l0.2-0.5l0.2-0.5l0.2-0.5l0.3-0.5l0.3-0.4l0.3-0.4l0.3-0.4l0.3-0.4l0.3-0.4l0.3-0.4l0.3-0.4
			l0.3-0.4l0.3-0.4l0.3-0.4l0.4-0.4l1.5,1.5l1.1-0.4l-1.9-1.9l0.4-0.4l0.4-0.4l0.4-0.4l0.4-0.3l0.4-0.3l0.4-0.3l0.4-0.3l0.5-0.3
			l0.8-1.7l-0.7,0.4l-0.7,0.4l-0.6,0.4l-0.6,0.4L28.2,17l-0.6,0.5L27,18l-0.6,0.5L23,15.1l0.4-0.4l0.4-0.4l0.4-0.4l0.4-0.4l0.4-0.4
			l0.5-0.4l0.5-0.3l0.5-0.3l0.5-0.3l0.5-0.3l0.5-0.3l0.5-0.3l0.5-0.3l0.5-0.3l0.5-0.3l0.5-0.3l0.5-0.2l0.5-0.2l0.6-0.2l0.5-0.2
			l0.6-0.2L34,8.5l0.6-0.2l0.6-0.1L35.7,8l0.6-0.1l0.6-0.1l0.6-0.1L38,7.5l0.6-0.1l0.6-0.1l0.6-0.1v-1l-1.4,0.2l-1.4,0.2l-1.3,0.3
			l-1.3,0.4l-1.3,0.4l-1.3,0.5l-1.3,0.5l-1.2,0.6L28.2,10L27,10.7l-1.1,0.7l-1.1,0.8l-1,0.8l-1,0.9l-1,0.9l-0.9,1l-0.9,1l-0.8,1
			L18.4,19l-0.7,1.1L17,21.2l-0.6,1.2l-0.6,1.2l-0.5,1.2l-0.5,1.3l-0.4,1.3L14,28.8l-0.3,1.4l-0.2,1.4L13.3,33l-0.1,1.4l0,1.4l0,1.5
			l0.1,1.5l0.2,1.5l0.3,1.4l0.3,1.4l0.4,1.4L15,46l0.5,1.4l0.6,1.3l0.7,1.3l0.7,1.3l0.8,1.2l0.8,1.1l0.9,1.1l0.9,1.1l1,1l1,1
			l1.1,0.9l1.1,0.9l1.1,0.8l1.2,0.8l1.3,0.7l1.3,0.7l1.3,0.6l1.4,0.5l1.4,0.5l1.4,0.4l1.4,0.3l1.4,0.3l1.5,0.2l1.5,0.1l1.5,0l1.5,0
			l1.5-0.1l1.5-0.2l1.5-0.3l1.4-0.3l1.4-0.4l1.4-0.5l1.4-0.5l1.3-0.6l1.3-0.7l1.3-0.7l1.2-0.8l1.2-0.8l1.1-0.9l1.1-0.9l1-1l1-1
			l0.9-1.1l0.9-1.1l0.8-1.1l0.8-1.2l0.7-1.3l0.7-1.3l0.6-1.3l0.5-1.4l0.5-1.4l0.4-1.4l0.3-1.4l0.3-1.4l0.2-1.5l0.1-1.5l0-1.5l0-1.4
			l-0.1-1.4l-0.2-1.4l-0.2-1.4l-0.3-1.4l-0.4-1.3L71,26.2l-0.5-1.3L70,23.6l-0.6-1.2l-0.6-1.2L68.1,20l-0.7-1.1l-0.8-1.1l-0.9-1
			l-0.9-1l-0.9-1l-1-0.9L62,13l-1-0.8l-1.1-0.8l-1.1-0.7l-1.2-0.7l-1.2-0.6l-1.2-0.6l-1.3-0.5l-1.3-0.5l-1.3-0.4L50,6.9l-1.4-0.3
			l-1.4-0.2l-1.4-0.2v1l0.6,0.1L47,7.4l0.6,0.1l0.6,0.1l0.6,0.1l0.6,0.1L50.1,8l0.6,0.1l0.6,0.2l0.6,0.2l0.6,0.2l0.6,0.2l0.6,0.2
			l0.6,0.2l0.6,0.2l0.5,0.2l0.5,0.3l0.5,0.3l0.5,0.3l0.5,0.3l0.5,0.3l0.5,0.3l0.5,0.3l0.5,0.3l0.5,0.3l0.5,0.4l0.5,0.4l0.4,0.4
			l0.4,0.4l0.4,0.4l0.4,0.4l0.4,0.4l-3.3,3.3l0.1-0.5l-0.4-0.1l-0.6-0.1l0.1-0.4L58.5,16l-0.9-0.9l-2.5-1.4L54.9,14l-0.5,0.1l0.6,1
			l0,0.1L54.7,15l-0.4-0.2l-0.4-0.2l-0.4-0.2l-0.3-0.4l-0.4-0.4l-0.4-0.4l-0.4-0.3l-0.5-0.3l-0.5-0.3l-0.5-0.3l-0.5-0.3l-0.5-0.2
			l-0.5-0.2L48.3,11l-0.6-0.1l-0.5-0.1l-0.6-0.1l-0.6-0.1L45.5,10.5L45.5,10.5z M54.2,21.7l0.1-0.4l0.1-0.4l0.1-0.4l0.1-0.4l0.1-0.4
			l0.1-0.4l0-0.4l0-0.5v-0.3v-0.3l0-0.3l0-0.3l0-0.3l-0.1-0.3l-0.1-0.3L54.4,16l0.3,0.2l0.3,0.2l0.3,0.2l0.3,0.2l0.1,0.7l0.1,1.1
			v0.6l1.2,1.6l-0.6,0.1l0.4,0.5l-1.1,1.1l-0.4-0.7L55,22.4l-0.2-0.2l-0.2-0.2l-0.2-0.2L54.2,21.7L54.2,21.7z M40.1,11l-0.7,0.3
			l-0.8,0.3L37.8,12l-0.8,0.3l-0.3,0.1l-0.3,0.1l-0.3,0.1l-0.3,0.1l-0.3,0.1l-0.3,0.1l-0.3,0.1L34.7,13l-0.3,0.1l-0.3,0.2l-0.2,0.1
			l-0.3,0.2l-0.2,0.2L33.2,14L33,14.3l-0.2,0.2l-0.2,0.2L32.4,15l-0.2,0.3L32,15.5l-0.2,0.3L31.7,16l-0.2,0.3l-0.1,0.3L31.3,17
			l-0.1,0.3L31,17.7L30.8,18l-0.2,0.7l-0.2,0.8l0,0v0l0,0.1l0,0.1h0L30.4,20l-0.1,0.2l-0.1,0.2l-0.1,0.2L30,20.8L29.8,21l-0.1,0.1
			l-0.2,0.1l-0.2,0.1l-0.2,0.1l-0.2,0.1l-0.2,0.1l-0.2,0l-0.2,0l-0.2,0l-0.2,0l0.1,0.1l0.2,0l0.2,0h0.2l0.2,0l0.3,0l0.3-0.1l0.3-0.1
			l-0.1,0.3l-0.1,0.3l-0.1,0.3l0,0.3l0.2-0.5l0.2-0.4l0.2-0.4l0.3-0.4l0.1-0.2l0.2-0.1l0.1-0.1l0.1-0.1l0.1-0.1l0.2-0.1l0.1-0.1
			l0.1,0h0l1.1-0.3l0.8-0.4l0.8-0.4l0.4-0.2l0.4-0.2l0.4-0.2l0.4-0.3l0.4-0.3l0.4-0.3l0.3-0.3l0.3-0.3l0.3-0.3l0.3-0.3l0.3-0.4
			l0.3-0.4l2-1.2L40.1,11L40.1,11z M33.4,16.4l0.5-0.9l0.7,0l-0.4,0.8L33.4,16.4L33.4,16.4z M42.9,0h-0.6l-0.6,0.3l-0.4,0.2
			l-0.4,0.4l-0.3,0.5l-0.1,0.5L40.4,3v1.2l0.2,1.3l0.4,2l0.4,15.6l1.6-0.4l1.3-0.3l0.4-15l0.4-2l0.1-1.3L45.3,3V1.9L45,1.2l-0.1-0.4
			l-0.4-0.4l-0.4-0.2L43.5,0H42.9L42.9,0z M48.6,9.8l0.3-0.3l-0.5-0.2h-1.5l-0.4,0.2l-0.8-0.1v0.2l1.5,0.1h0.7H48.6L48.6,9.8z
			 M45.7,41.2V41l-0.2-0.2L45,40.4h-0.1v1.7l0.6-0.5l0.2-0.2V41.2L45.7,41.2z M64.3,25.1L64.3,25.1l0.2,0.1l0.1-0.2l-0.9-1.5l-1-1.5
			l-0.8-0.7l-0.4-0.5l-0.4-0.5l-0.4-0.5l-0.4-0.5l3.4-3.4l0.4,0.5l0.4,0.5l0.4,0.5l0.4,0.5l0.4,0.5l0.4,0.5l0.4,0.5l0.4,0.6l0.4,0.6
			l0.3,0.6l0.3,0.6l0.3,0.6l0.3,0.6l0.3,0.6l0.3,0.6l0.3,0.6l0.2,0.6l0.3,0.6l0.2,0.6l0.2,0.6l0.2,0.6l0.2,0.7l0.2,0.7l0.1,0.7
			l0.1,0.7l0.1,0.7l0.1,0.7l0.1,0.7l0.1,0.7l0,0.7l0,0.7l0,0.7h-4.8l0-0.7l0-0.7l-0.1-0.7l-0.1-0.7l-0.1-0.7l-0.1-0.7l-0.1-0.7
			L66.1,30l-0.2-0.6l-0.2-0.6l-0.2-0.6l-0.2-0.6l-0.2-0.6l-0.3-0.6l-0.3-0.6L64.3,25.1L64.3,25.1z M57.4,22.2L57.4,22.2L57.4,22.2
			l1.2,0.1l0.2,0.4l-0.1,0.5l1.6,1l0.3-0.1l2.1,2.5l0.8-0.4l0.1,0l0,0l0.2,0.5l0.2,0.5l0.2,0.6l0.2,0.5l0.2,0.6l0.2,0.6L65,30
			l0.2,0.6l0.1,0.6l0.1,0.6l0.1,0.6l0.1,0.6l0.1,0.6l0.1,0.6l0,0.6l0,0.6h-4.8l0-0.5l0-0.5l0-0.4l-0.1-0.5L60.7,33l-0.1-0.4
			l-0.1-0.4l-0.1-0.4l0.1-0.1l0.3-1.5l-0.3-1.7l-0.5-1.9l-1.4-2l0.2,0.1l0.3-0.1l-1.1-0.7L58,23.9l1.1,1.6l0.6,1.3l0.5,1.2l0.1,0.9
			l0.3,1.5h-0.5L60,30l-0.1-0.4l-0.1-0.4L59.6,29l0.1-0.2l-0.4-0.5v-0.6L59,27.3h-0.2l-0.1-0.2L58.6,27l-0.1-0.2l-0.1-0.1l0,0h0.1
			l-0.1-0.4l0.3-0.1l-0.1-0.3l-0.5,0.2l0,0l0.2-0.7L58,25.3l-0.2,0.3l-0.4-0.6L57,24.5L56.6,24l-0.5-0.5L57.4,22.2L57.4,22.2z
			 M55.3,24.3L55.3,24.3L55.3,24.3l0.7,0.8l0.1,0l0.4,0.5l0.4,0.5l0.3,0.5l0.3,0.5l0,0l0,0L57,27.3V28l1.4,0.9h0l0,0l0.2,0.5
			l0.2,0.5l0.2,0.5l0.2,0.5L59.1,31v0L59,31.4l-0.5,0.3l-0.1,0.7L58,32.5l-0.3,0.4l-0.3-0.1H57l0.3-0.4l0.2-1l0.4-0.2l-1-0.9
			l-0.7,0.3L56,31.1l-0.4,0.5l-0.5-0.4L55,30.9l0.2-0.1l0.1,0.3l0.3-0.1l-0.1-0.4h-0.4v0.1H55l-1.1-1.2l-0.4-0.3l0.1-0.1l0.4-0.1
			l-0.4-0.1l-0.4,0.1l0.3,0.2H53l-0.3-0.4l-0.3-0.4L52.2,28l-0.3-0.3L55.3,24.3L55.3,24.3z M52.1,29.5L52.1,29.5L52.1,29.5l-0.2,0.7
			l-0.5-0.4l-0.4,0.1l0.3,0.4h0.1l-0.1,0.5l-0.3-0.2l-0.5-0.1l0.4-0.1v-0.1l-0.4-0.3l0.1-1h0l0.6-0.6l0.2,0.3l0.2,0.3l0.2,0.3
			L52.1,29.5L52.1,29.5z M54.3,55.6l0.5-1l-0.3-0.5l0.7-0.6v-0.4l-0.6-0.4l0.5-0.9l0.7-1l-0.7-0.7h-0.5l-0.3-0.4l0.3-0.2l0.3-0.2
			l0.3-0.2l0.2-0.2l1.8,1.7v0.3l0,0l0.3,0l1.3,1.3l-0.5,0.5l-0.5,0.5l-0.5,0.4L56.6,54l-0.6,0.4l-0.6,0.4l-0.6,0.4L54.3,55.6
			L54.3,55.6z M54.8,46.8l0.1-0.4l-0.5-1.5l-0.6,1l-0.5-0.5l0.2-0.3l0.5-0.9L53.8,44l0.4-0.7L54,42.6L53.9,42l-0.5-0.1l-0.1,0.4
			l-0.1-0.1l0.3-0.4l0.2-0.4l0.2-0.5l0.2-0.5l0.4-0.2l0.3-0.2l0.1,0.1l0.2-0.4l-0.2-0.3l0.2-0.1l0.4,0.1h0.7l0.5-0.1l1.3-0.4
			l-0.3-0.4L57.6,38l0.6,0.3l0.3-0.1l-0.1-0.5l-0.7,0.2l-0.9-0.1l-0.6-1.4h0h0l-0.1-0.1h3.8l0,0.8l-0.1,0.8l-0.1,0.8l-0.2,0.8
			l-0.2,0.7l-0.2,0.7l-0.2,0.7l-0.3,0.7l-0.3,0.7L58,43.7l-0.4,0.7L57.2,45l-0.4,0.6l-0.4,0.6l-0.5,0.6l-0.5,0.6L54.8,46.8
			L54.8,46.8z M52.8,46.3l-0.2,0l0,0l-0.1,0.1l-1.1-0.3l-0.3,0.1l-0.6-0.5L50,45.7l0.7-0.6l0-0.1l0.6-0.3L52.8,46.3L52.8,46.3z
			 M55.5,35.3v-0.2l0.5-0.4v-0.3l0.3-0.1l0.6-0.1V34l-0.5-0.3l0.9-0.5l0.9-0.1l0.3-0.5l0.5-0.3l0.3-0.5l0.1-0.6v0l0,0l0,0l0,0.2
			l0,0.2l0,0.1l0,0.2l-0.1,0.2l0,0L59,33.4l-0.1,0.5l0.6-0.7l0.2-0.4l0.1,0.6l0.1,0.6l0,0.6l0,0.6H55.5L55.5,35.3z M49.8,27.2
			L49.8,27.2l-0.4,0.3l-0.2,0.4l-0.3-0.2l-0.7,0.2l0.3,0.4l0.5-0.3l0.4,0.1v-0.3l0.2-0.1l0.1-0.1l0.4-0.1h0.3L49.8,27.2L49.8,27.2z
			 M58.8,50.8l0.2-0.3l-0.4-1.8l-0.3-0.1l0.1-0.3l-0.7-0.3l-0.3,0.6v0.9l-1.4-1.4l0.5-0.6l0.5-0.6l0.5-0.6l0.4-0.7l0.4-0.7l0.4-0.7
			l0.4-0.7l0.3-0.7l0.3-0.7l0.3-0.8l0.2-0.8l0.2-0.8l0.1-0.8l0.1-0.8l0.1-0.8l0-0.8h4.8v0.6l0,0.6l0,0.5l-0.1,0.6L65.5,39l-0.1,0.5
			l-0.1,0.5l-0.1,0.5l-0.1,0.5L65,41.7l-0.1,0.5l-0.2,0.5l-0.2,0.5l-0.2,0.5l-0.2,0.5L64,44.7l-0.2,0.5l-0.2,0.5l-0.2,0.5l-0.2,0.5
			L62.8,47l-0.3,0.4l-0.3,0.4L62,48.3l-0.3,0.4l-0.3,0.4l-0.3,0.4L60.8,50l-0.3,0.4l-0.3,0.4l-0.3,0.4l-0.3,0.4L58.8,50.8L58.8,50.8
			z M27.3,36.4L27.3,36.4l-0.4,1.3l0.5,0.4l-0.5,0.7h-0.7l-0.1-0.6L26,37.6l0-0.6l0-0.6h1.4L27.3,36.4L27.3,36.4z M25,37.9L25,37.9
			L25,37.9L24.3,38l-0.1,0.6l-1.2,1.5l0.1,2.2l-1.4,0.4h-0.6L20.9,42l-0.2-0.8l-0.2-0.8l-0.1-0.8l-0.1-0.8L20.2,38l-0.1-0.8l0-0.8
			h4.8l0,0.4l0,0.4l0,0.4L25,37.9L25,37.9z M20,42.7h-0.1l0,0H20l-0.3,0l-0.3-0.4l-1.4-0.1l0.4,0.6l-1.3-0.3l0.4-0.4L17.2,42
			l-0.9,0.4L16,43l0.1,1.4l1.1,2.6l0.5,0.7l0.2,0.1l-0.7-1.5L17,45.6l0.2-0.3L17.1,45h0.5l0.7,1.1l0.1,0.1v-0.9l0.2,0.3l0.1,0.4
			l0.7,0.3L20,46h0.1v0.6l0.3,0.5h0.5l0.9,1.6l0.5,0.1l0.2-0.7v0l0,0v0l0.4,0.6l0.4,0.6l0.4,0.6l0.4,0.6l0.4,0.5l0.4,0.5l0.4,0.5
			l0.5,0.5l-3.4,3.4l-0.4-0.5l-0.4-0.5L21,54.3l-0.4-0.5l-0.4-0.5l-0.4-0.5l-0.4-0.5L19,51.7l-0.4-0.6l-0.3-0.6L18,50l-0.3-0.6
			l-0.3-0.6L17,48.2l-0.3-0.6L16.5,47l-0.3-0.6L16,45.7l-0.2-0.6l-0.2-0.7l-0.2-0.6l-0.2-0.7L15,42.5l-0.2-0.7l-0.1-0.7l-0.1-0.7
			l-0.1-0.7l-0.1-0.7l-0.1-0.7l0-0.7l0-0.7l0-0.7H19l0,0.8l0.1,0.8l0.1,0.8l0.1,0.8l0.1,0.8l0.2,0.8l0.2,0.8L20,42.7L20,42.7z
			 M25.4,50.5l0.4-0.3l1.1,0.6l0.2,0.1l-0.7,0.7l-0.3-0.3l-0.3-0.3l-0.2-0.3L25.4,50.5L25.4,50.5z M29.6,46.4l0.1-1.2l-0.5-1.1
			l-0.1-1.9l-0.6-1.1l0.1-0.7L27.9,39l-0.6-0.3l0.2-0.7l-0.2-0.6l0.2-0.6h0.7l0.2-0.3v0l0.1-0.1h1l0.1,0.1l0,0v0l0,0l0,0l0.1,0.4
			l-0.1,1.1l-0.2,0.3l0.5,0.9l-0.3,0.3L29.4,39h-0.1l0.3,0.6l0.4,0.6H30l0.1-0.6l-0.3-0.1V39v-0.7l0.2-1.4l0-0.1l-0.2-0.3h0.1l0-0.1
			h0.9l0,0.6l0.1,0.6L31,38l0.1,0.5l0.1,0.5l0.1,0.5l0.2,0.5l0.2,0.5L32,41l0.3,0.5l0.3,0.4l0.3,0.4l0.3,0.4l0.3,0.4l0.3,0.4
			l0.4,0.4l-3.5,3.5l-0.3-0.3L30.1,47l-0.2-0.3L29.6,46.4L29.6,46.4z M29.4,35.3L29,34.7v-0.9l0.6-0.4l1,0.1l0.3,0.3l0,0.1l0.1,0.3
			l0,0.3l0,0.3l0,0.3l0,0.3H29.4L29.4,35.3z M31.8,37.1l0.1,0.1l0.5,0.6h0.7l0.8,0.6l0.3-0.1l0.6,0.5L34.5,39l0.7,0.4v-0.5l0.4-0.6
			l0.4,0.5l0.5,0.5l-0.7,0.2l0.3,0.6l0.5-0.2v-0.3l0.4-0.3l0.2-1.1l0,0.1v-0.1l0.1-0.1l0.2,0.4l0.2,0.4l0.3,0.4l0.3,0.4l-3.5,3.5
			l-0.3-0.3l-0.3-0.3l-0.3-0.3L33.7,42l-0.2-0.4l-0.2-0.4L33,40.9l-0.2-0.4l-0.2-0.4l-0.1-0.4l-0.2-0.4l-0.1-0.4l-0.1-0.4L32,38
			l-0.1-0.4L31.8,37.1L31.8,37.1z M34,27.5l-0.1,0.1l0,0l-1,1.2L32,30.3h-0.2l-0.5,0.1h-0.1l-0.5,0.5l0.6-0.1l0.6-0.1l-0.1,0.3
			l-0.5,0.3H31l-0.7,0.6l-0.7-0.1l-1.1,2l0.3,0.5L28,34.7v0.6h-2.1l0-0.8l0.1-0.8l0.1-0.8l0.2-0.8l0.2-0.7l0.2-0.8l0.3-0.7l0.3-0.7
			l0.3-0.7l0.3-0.7l0.4-0.7l0.4-0.7l0.4-0.6l0.5-0.6l0.5-0.6l0.5-0.6L34,27.5L34,27.5z M57.4,14.1l-0.2-0.5l-0.6-0.4L56,13.8
			l0.6,0.2l0.7,0.5V14.1L57.4,14.1z M54.5,27.9v0.4l0.9-0.3l0.3-0.5L55,26.8l0.2-0.5l0.9,0.5l0.1-0.1h-0.1l-0.3-0.4l0.4-0.2
			l-0.4-0.4L55.1,26l-0.2,0.5l-0.1,0.4l0.4,0.5L55,27.7L54.5,27.9L54.5,27.9z M19.2,49.8v-0.3l-0.4-1l-0.5-0.1L19.2,49.8L19.2,49.8z
			 M39.2,31.5l0.1,0.5l0.3,0.5l0.4,0.5l0.6,0.4V33L40,32.4l0.3-0.5l0.2-0.1v-2.1h-0.1L39.9,30l-0.4,0.4l-0.3,0.5L39.2,31.5
			L39.2,31.5z M28.9,22.4L28.5,22l0.7-0.1L28.9,22.4L28.9,22.4z M71.6,36.3h-4.8l0,0.6l0,0.6l0,0.6l-0.1,0.6l-0.1,0.6l-0.1,0.6
			l-0.1,0.6l-0.1,0.6l-0.1,0.6L66,41.9l-0.1,0.5L65.7,43l-0.2,0.5L65.3,44l-0.2,0.5L64.9,45l-0.2,0.5L64.5,46l-0.2,0.5L64,47
			l-0.3,0.5l-0.3,0.5l-0.3,0.5l-0.3,0.5l-0.3,0.4l-0.3,0.4l-0.3,0.4l-0.3,0.4l-0.3,0.4l-0.4,0.4l-0.4,0.4l-0.4,0.4l3.4,3.4l0.4-0.5
			l0.4-0.5l0.4-0.5l0.4-0.5l0.4-0.5l0.4-0.5l0.4-0.5l0.4-0.6l0.3-0.6l0.4-0.6l0.3-0.6l0.3-0.6l0.3-0.6l0.3-0.6l0.3-0.6l0.3-0.6
			l0.3-0.6l0.2-0.6l0.2-0.6l0.2-0.6l0.2-0.7l0.2-0.6l0.1-0.7l0.1-0.7l0.2-0.7l0.1-0.7l0.1-0.7l0.1-0.7l0.1-0.7l0-0.7l0-0.7
			L71.6,36.3L71.6,36.3z"/>
	</g>
</g>
</svg>
